<svg width="27" height="37" viewBox="0 0 27 37" fill="none" xmlns="http://www.w3.org/2000/svg">
<g clip-path="url(#clip0_487_124)">
<path d="M9.63171 30.0262C12.5909 30.0262 15.5501 30.0192 18.5093 30.0351C18.867 30.0371 18.9904 29.9284 18.9335 29.5761C18.9239 29.5152 18.9325 29.4513 18.9325 29.3895C18.9325 29.0229 18.7625 28.8173 18.4225 28.7727C18.1149 28.7328 17.9587 28.5382 17.9095 28.2358C17.8574 27.9175 17.7938 27.5991 17.7629 27.2778C17.7388 27.0253 17.6174 26.9245 17.4072 26.7958C16.9135 26.4934 16.5779 26.6541 16.1845 27.0034C15.3592 27.7369 15.3418 27.7159 14.5752 26.9245C14.2175 26.5553 13.8569 26.189 13.505 25.8138C13.2253 25.5164 13.2128 25.2969 13.4375 24.9506C13.5378 24.7959 13.6274 24.6273 13.7528 24.4965C14.1192 24.1153 14.178 23.7361 13.9042 23.2491C13.7721 23.0136 13.6631 22.8888 13.4057 22.8769C13.1183 22.8639 12.831 22.825 12.5446 22.787C12.1358 22.7332 11.9661 22.5485 11.9613 22.1284C11.9535 21.4189 11.9603 20.7093 11.9593 19.9998C11.9593 19.6275 12.1464 19.425 12.4916 19.3661C12.669 19.3361 12.8474 19.2872 13.0258 19.2822C13.5339 19.2683 13.854 19.0607 13.9938 18.5128C14.0604 18.2534 14.0729 18.0847 13.8974 17.8851C13.6872 17.6466 13.5011 17.3841 13.3112 17.1277C13.1058 16.8502 13.1125 16.5748 13.3526 16.3223C13.8521 15.8004 14.3535 15.2815 14.8578 14.7635C15.0892 14.526 15.3437 14.517 15.6079 14.7066C15.9039 14.9192 16.2057 15.1258 16.4902 15.3543C16.6367 15.4721 16.7524 15.4352 16.9135 15.3952C17.5132 15.2475 17.7408 14.8563 17.6926 14.2496C17.6877 14.1887 17.7022 14.1258 17.7109 14.064C17.8131 13.2666 17.8815 13.2067 18.6732 13.2057C19.2266 13.2057 19.7801 13.2017 20.3336 13.2067C20.8359 13.2107 20.9902 13.3544 21.0712 13.8724C21.0924 14.0071 21.1146 14.1418 21.1367 14.2765C21.2717 15.1098 21.2737 15.1048 22.0393 15.3793C22.1791 15.4292 22.2649 15.3873 22.3632 15.3044C22.6332 15.0759 22.9013 14.8454 23.178 14.6248C23.4894 14.3773 23.7257 14.3883 24.0101 14.6757C24.5009 15.1707 24.982 15.6767 25.468 16.1776C25.7216 16.4391 25.7351 16.7165 25.5288 17.0149C25.3398 17.2883 25.1652 17.5728 24.9637 17.8352C24.8268 18.0139 24.8528 18.1615 24.901 18.3741C25.0389 18.9859 25.4237 19.1216 25.9646 19.1525C26.9529 19.2084 27.0001 19.2872 27.0001 20.3171C27.0001 20.852 27.003 21.3879 26.9992 21.9228C26.9963 22.3549 26.8603 22.5226 26.4467 22.6134C26.2587 22.6543 26.0687 22.7082 25.8788 22.7132C25.4111 22.7252 25.1228 22.9048 24.9791 23.4098C24.8953 23.7062 24.8692 23.9027 25.0842 24.1313C25.2848 24.3438 25.4468 24.5953 25.6261 24.8288C25.8479 25.1173 25.845 25.3997 25.5943 25.6641C25.1064 26.1801 24.6147 26.693 24.12 27.202C23.8828 27.4455 23.6177 27.4724 23.339 27.2708C23.2011 27.171 23.0449 27.0892 22.9292 26.9664C22.5117 26.5244 22.074 26.4735 21.562 26.8008C21.4212 26.8906 21.3431 26.9665 21.3267 27.1281C21.2949 27.4495 21.2553 27.7708 21.2235 28.0921C21.1734 28.6021 21.0008 28.7707 20.5119 28.7777C20.1835 28.7824 20.0192 28.9564 20.0192 29.2997C20.0192 30.8934 20.0211 32.4871 20.0192 34.0798C20.0163 35.6316 19.1379 36.5408 17.6444 36.5408C12.5562 36.5408 7.46801 36.5408 2.37983 36.5408C0.889155 36.5408 0.00303941 35.6237 0.0020752 34.0818C0.0020752 32.9861 0.0020752 31.8903 0.0020752 30.7956C0.0020752 30.1938 0.164064 30.0282 0.755129 30.0272C3.71431 30.0262 6.67349 30.0272 9.63267 30.0272L9.63171 30.0262ZM15.3495 15.8972C15.3119 15.9162 15.2733 15.9251 15.2502 15.9491C14.9889 16.2235 14.6456 16.461 14.5039 16.7914C14.4268 16.97 14.8009 17.2265 14.9571 17.459C15.0188 17.5508 15.0892 17.6366 15.1586 17.7225C15.3408 17.949 15.3659 18.1935 15.2251 18.449C14.9976 18.8621 14.8269 19.2962 14.7122 19.7573C14.6505 20.0068 14.4875 20.1614 14.232 20.2004C14.0777 20.2243 13.9234 20.2532 13.7701 20.2822C13.046 20.4189 13.0421 20.4189 13.047 21.1893C13.0499 21.7382 12.9631 21.7182 13.531 21.7631C13.7345 21.7791 13.9369 21.816 14.1404 21.834C14.4663 21.8639 14.6659 22.0276 14.7488 22.3669C14.8375 22.7292 14.9609 23.0844 15.1596 23.3968C15.4064 23.786 15.3698 24.1123 15.1007 24.4846C14.4914 25.3258 14.5097 25.3318 15.2569 26.0453C15.3987 26.1801 15.4845 26.1681 15.6166 26.0513C15.8355 25.8567 16.0727 25.6851 16.2925 25.4915C16.5461 25.2679 16.8045 25.252 17.089 25.4236C17.4014 25.6122 17.7292 25.7809 18.0821 25.8537C18.5363 25.9475 18.7088 26.227 18.7677 26.676C18.9046 27.7119 18.9181 27.7049 19.9411 27.659C20.1214 27.651 20.1986 27.5991 20.2092 27.4075C20.2265 27.0972 20.2661 26.7888 20.2969 26.4795C20.3278 26.1761 20.4753 25.9685 20.7674 25.8897C21.2004 25.7729 21.6073 25.5923 21.992 25.3568C22.2234 25.215 22.4471 25.231 22.666 25.3947C22.9283 25.5923 23.1944 25.7859 23.4586 25.9795C23.5434 26.0414 23.6225 26.1362 23.7343 26.0094C23.9773 25.736 24.335 25.5045 24.4363 25.1851C24.5096 24.9536 24.12 24.7021 23.9523 24.4486C23.9118 24.3868 23.8664 24.3279 23.8192 24.272C23.6206 24.0365 23.6042 23.785 23.7478 23.5145C23.9282 23.1762 24.1007 22.829 24.175 22.4507C24.2647 21.9907 24.5096 21.7951 24.957 21.7292C25.9588 21.5835 25.9511 21.5626 25.9193 20.5167C25.9135 20.3331 25.8759 20.2532 25.684 20.2413C25.3725 20.2213 25.064 20.1614 24.7535 20.1295C24.4652 20.0996 24.2926 19.9409 24.2184 19.6585C24.1046 19.2244 23.9407 18.8112 23.717 18.425C23.5617 18.1576 23.582 17.9091 23.7565 17.6616C23.9407 17.4001 24.1191 17.1347 24.2994 16.8702C24.3611 16.7794 24.4392 16.6976 24.3216 16.5828C24.0593 16.3283 23.8404 15.9531 23.5328 15.8463C23.3188 15.7715 23.071 16.1796 22.828 16.3563C22.7692 16.3992 22.7132 16.4471 22.6592 16.496C22.422 16.7105 22.1704 16.7345 21.8965 16.5678C21.5321 16.3463 21.1445 16.1766 20.7327 16.0768C20.4377 16.005 20.2796 15.8164 20.2304 15.516C20.1841 15.2346 20.1195 14.9531 20.0992 14.6697C20.08 14.4013 19.9768 14.3234 19.7165 14.3244C18.7869 14.3294 18.7869 14.3184 18.6847 15.2715C18.6172 15.8982 18.5584 15.9701 17.9866 16.1507C17.8488 16.1946 17.6906 16.2175 17.5836 16.3054C16.8344 16.9191 16.1951 16.6606 15.5877 16.0639C15.5192 15.997 15.4305 15.9511 15.3514 15.8952L15.3495 15.8972ZM9.99907 31.1518C7.14885 31.1518 4.29959 31.1568 1.44936 31.1439C1.14178 31.1429 1.07043 31.2337 1.07814 31.538C1.09839 32.4083 1.08393 33.2805 1.08585 34.1517C1.08778 34.971 1.51782 35.4171 2.31523 35.4171C7.44969 35.4181 12.5841 35.4181 17.7186 35.4171C18.4977 35.4171 18.9258 34.978 18.9306 34.1746C18.9354 33.3164 18.9152 32.4572 18.9403 31.5989C18.9509 31.2486 18.8728 31.1399 18.5131 31.1419C15.6754 31.1588 12.8377 31.1508 10 31.1508L9.99907 31.1518Z" fill="#00FFFF"/>
<path d="M0 15.2166C0 11.145 0 7.07434 0 3.00371C0 1.46587 0.893829 0.540771 2.37776 0.540771C7.46593 0.540771 12.5541 0.540771 17.6413 0.540771C19.1368 0.540771 20.0162 1.4489 20.0171 2.99972C20.0191 4.8549 20.0171 6.70909 20.0142 8.56428C20.0142 8.7489 20.0374 8.9425 19.913 9.10217C19.7655 9.29178 19.5775 9.38859 19.3422 9.31673C19.0626 9.23191 18.9334 9.01735 18.9314 8.72794C18.9256 7.95653 18.9324 7.18412 18.9276 6.4127C18.9237 5.82192 19.0057 5.89277 18.4349 5.89177C12.7932 5.88978 7.15256 5.89377 1.51093 5.88179C1.16574 5.88179 1.07607 5.96562 1.07703 6.32887C1.0886 13.4123 1.08571 20.4958 1.08571 27.5792C1.08571 28.18 0.912149 28.4604 0.540926 28.4594C0.169702 28.4594 0.000964217 28.183 0.000964217 27.5772C0.000964217 23.4567 0.000964217 19.3361 0.000964217 15.2156L0 15.2166ZM9.97579 4.76409C12.8376 4.76409 15.6994 4.7611 18.5621 4.76908C18.8273 4.76908 18.9517 4.72118 18.9353 4.40583C18.9083 3.8849 18.9343 3.36097 18.9266 2.83805C18.916 2.1305 18.4802 1.66845 17.7917 1.66746C12.5965 1.66247 7.40229 1.66247 2.20709 1.66746C1.53407 1.66746 1.09246 2.15046 1.08571 2.85501C1.08089 3.36497 1.10499 3.87691 1.07703 4.38587C1.05967 4.7092 1.1696 4.77207 1.46175 4.77108C4.29944 4.7601 7.1381 4.76409 9.97579 4.76409Z" fill="#00FFFF"/>
<path d="M8.20553 16.6587C7.80731 16.6627 7.56143 16.2615 7.72246 15.8324C8.10043 14.8254 8.48998 13.8235 8.87566 12.8206C9.52651 11.125 10.1783 9.42852 10.8272 7.73201C10.9092 7.51845 11.0008 7.31786 11.2409 7.25599C11.4559 7.2011 11.6516 7.24601 11.7972 7.42464C11.9631 7.62822 11.9486 7.85476 11.857 8.09027C11.4173 9.23193 10.9805 10.3746 10.5418 11.5172C9.94787 13.0631 9.35102 14.6069 8.76285 16.1557C8.65775 16.4331 8.51022 16.6327 8.20457 16.6587H8.20553Z" fill="#00FFFF"/>
<path d="M16.5469 11.9513C16.5527 12.1309 16.4727 12.2666 16.3589 12.3844C15.6309 13.1448 14.9058 13.9083 14.1721 14.6627C13.9059 14.9362 13.6032 14.9441 13.3727 14.7146C13.1375 14.4791 13.15 14.1498 13.4219 13.8604C13.959 13.2895 14.497 12.7197 15.0476 12.1629C15.2096 11.9992 15.2317 11.9044 15.0553 11.7287C14.5182 11.1938 14.0004 10.638 13.4769 10.0881C13.1616 9.7568 13.123 9.42548 13.3641 9.17599C13.6119 8.91952 13.9243 8.95644 14.2453 9.29076C14.9328 10.0053 15.6165 10.7238 16.302 11.4393C16.4399 11.583 16.5672 11.7317 16.5469 11.9513Z" fill="#00FFFF"/>
<path d="M6.80451 14.2615C6.80933 14.5489 6.69748 14.7256 6.47764 14.8274C6.23369 14.9401 6.02928 14.8553 5.85572 14.6757C5.33697 14.1388 4.82304 13.5969 4.30719 13.057C4.08734 12.8265 3.86172 12.6029 3.64959 12.3654C3.38732 12.072 3.38539 11.7986 3.6573 11.5102C4.38818 10.7358 5.12484 9.96635 5.86729 9.20292C6.11413 8.94944 6.41593 8.94644 6.64059 9.164C6.86622 9.38255 6.87297 9.73283 6.62709 9.99529C6.10063 10.5591 5.57802 11.129 5.02167 11.6599C4.77194 11.8984 4.82111 12.0191 5.03517 12.2307C5.55681 12.7456 6.05531 13.2875 6.56345 13.8174C6.69266 13.9522 6.81029 14.0919 6.80451 14.2625V14.2615Z" fill="#00FFFF"/>
<path d="M16.5999 20.9568C16.6105 19.3092 17.9113 17.9949 19.5167 18.0089C21.0903 18.0229 22.3727 19.3691 22.364 20.9988C22.3553 22.6374 21.0286 23.9976 19.4579 23.9776C17.864 23.9567 16.5893 22.6104 16.5999 20.9568ZM20.0171 21.5526H20.019C20.019 21.851 20.0325 22.1514 20.0152 22.4488C19.9978 22.7611 20.1155 22.7432 20.3266 22.6274C21.0392 22.2372 21.4114 21.372 21.2185 20.5337C21.0295 19.7164 20.3025 19.1316 19.4762 19.1326C18.6335 19.1336 17.9325 19.7124 17.7309 20.5746C17.5439 21.374 17.9315 22.2502 18.6296 22.6334C18.8523 22.7551 18.9449 22.7432 18.9372 22.4458C18.9218 21.849 18.9237 21.2502 18.9381 20.6535C18.9478 20.2852 19.1956 20.0417 19.4993 20.0537C19.7944 20.0657 20.0026 20.3002 20.0152 20.6565C20.0258 20.9548 20.0171 21.2542 20.0171 21.5526Z" fill="#00FFFF"/>
<path d="M9.99991 34.0599C9.21889 34.0599 8.43691 34.0639 7.6559 34.0579C7.27021 34.0549 7.04169 33.8653 7.00891 33.55C6.97323 33.2037 7.22007 32.9432 7.61925 32.9382C8.40027 32.9293 9.18225 32.9342 9.96327 32.9342C10.7568 32.9342 11.5504 32.9303 12.3439 32.9362C12.7846 32.9392 13.0054 33.1338 13.0054 33.4941C13.0054 33.8494 12.773 34.0559 12.3449 34.0589C11.5639 34.0649 10.7819 34.0609 10.0009 34.0609L9.99991 34.0599Z" fill="#00FFFF"/>
<path d="M11.37 3.76819C10.9371 3.76819 10.5041 3.77417 10.0722 3.76619C9.70768 3.7592 9.47145 3.53866 9.46663 3.22031C9.4618 2.90197 9.69515 2.65348 10.0558 2.64948C10.9448 2.63751 11.8347 2.63751 12.7238 2.64948C13.0902 2.65447 13.309 2.89199 13.3032 3.22231C13.2975 3.55862 13.0853 3.7592 12.7045 3.76619C12.26 3.77417 11.8145 3.76819 11.37 3.76819Z" fill="#00FFFF"/>
</g>
<defs>
<clipPath id="clip0_487_124">
<rect width="27" height="36" fill="white" transform="translate(0 0.540771)"/>
</clipPath>
</defs>
</svg>
