<svg width="34" height="35" viewBox="0 0 34 35" fill="none" xmlns="http://www.w3.org/2000/svg">
<g clip-path="url(#clip0_487_168)">
<path d="M34 4.48902C33.8894 4.69872 33.7314 4.85577 33.5327 4.97159C32.3838 5.64455 31.2373 6.32453 30.0842 6.9896C29.6169 7.25896 29.1963 7.13876 29.015 6.71497C28.8504 6.33155 28.9743 5.97182 29.3867 5.72264C30.1341 5.27078 30.8898 4.83384 31.6422 4.39163C32.0471 4.15298 32.4494 3.90906 32.8593 3.68006C33.3897 3.38262 33.6608 3.46334 33.9991 3.99943V4.4899L34 4.48902Z" fill="#00FFFF"/>
<path d="M0.00912999 22.416C0.0523616 20.5313 0.832193 19.0836 2.37689 18.1273C4.13193 17.0402 5.89944 15.9759 7.66528 14.9081C7.87229 14.7826 8.03358 14.6194 8.17907 14.4238C10.9983 10.6308 13.8166 6.83603 16.6442 3.04919C17.6809 1.66115 19.3204 1.79627 20.17 3.32996C20.8908 4.62938 21.6042 5.93407 22.3033 7.24578C22.4621 7.54321 22.6351 7.6371 22.9643 7.60112C23.656 7.52567 24.3535 7.51426 25.0494 7.47829C25.3429 7.46337 25.5657 7.59674 25.7112 7.85995C26.1401 8.63645 26.5617 9.41733 26.9906 10.1938C27.1744 10.5272 27.1287 10.8361 26.9324 11.1449C26.55 11.7459 26.1834 12.3584 25.7901 12.9506C25.6421 13.1735 25.6355 13.3402 25.7694 13.5779C26.4502 14.794 27.1129 16.0206 27.7788 17.2455C28.1072 17.8491 28.1645 18.4817 27.9135 19.1292C27.6283 19.8654 27.1062 20.3111 26.3654 20.462C24.5647 20.8296 22.7631 21.1902 20.9623 21.5605C18.6195 22.0413 16.2775 22.5292 13.9355 23.0135C13.6445 23.0737 13.5717 23.2387 13.7169 23.5083C13.8915 23.833 14.0744 24.1532 14.2448 24.4805C14.5541 25.0745 14.4626 25.407 13.9014 25.7527C13.4808 26.0115 13.0651 26.2791 12.6353 26.5187C12.4208 26.638 12.4174 26.7486 12.5313 26.953C13.1349 28.041 13.7418 29.1272 14.3205 30.2292C15.3023 32.1007 14.3321 34.2161 12.3376 34.5109C11.3292 34.66 10.4703 34.2564 9.88257 33.3782C9.21247 32.3771 8.69619 31.2724 8.10924 30.2151C7.58298 29.2684 7.06336 28.3182 6.5529 27.3627C6.42986 27.132 6.3118 27.067 6.05407 27.1495C3.22656 28.0453 0.406528 26.1256 0.0149496 23.0451C-0.0116544 22.8389 0.0116241 22.6257 0.0116241 22.416H0.00912999ZM16.65 5.46115C16.5743 5.54801 16.5203 5.60417 16.4737 5.66646C14.1176 8.83211 11.7631 11.9986 9.40369 15.1608C9.2873 15.3169 9.29644 15.4354 9.38623 15.5986C10.4462 17.5254 11.5062 19.453 12.5505 21.3894C12.7051 21.6763 12.8739 21.7307 13.1665 21.6693C16.7306 20.9244 20.2972 20.1918 23.8638 19.4565C24.2513 19.3767 24.2562 19.3626 24.0575 18.9985C21.9907 15.2196 19.9248 11.4406 17.858 7.66166C17.4614 6.93606 17.0623 6.2122 16.6491 5.46115H16.65ZM4.77957 25.901C5.28422 25.8808 5.86203 25.7115 6.39993 25.3824C7.99783 24.405 9.59657 23.4311 11.1995 22.4633C11.3865 22.3502 11.4148 22.2466 11.3067 22.0492C10.3016 20.2234 9.30143 18.394 8.30461 16.562C8.19653 16.3628 8.08928 16.3391 7.90721 16.4576C7.5306 16.7015 7.14235 16.9261 6.75991 17.1604C5.45049 17.9632 4.12112 18.7335 2.83664 19.5793C1.61868 20.3813 1.10572 22.0036 1.52806 23.4487C1.9504 24.8955 3.24734 25.9089 4.77957 25.8992V25.901ZM18.3252 3.59142C17.8206 3.58967 17.5262 4.0968 17.774 4.54954C20.3646 9.28836 22.956 14.0272 25.5432 18.7677C25.6579 18.9774 25.7843 19.0722 26.0221 19.0222C26.6423 18.8923 26.8285 18.4607 26.5026 17.8632C24.7908 14.7308 23.0774 11.5994 21.3639 8.46711C20.5624 7.00186 19.761 5.53749 18.9587 4.07311C18.8165 3.81428 18.6569 3.5765 18.326 3.59054L18.3252 3.59142ZM11.8155 33.0535C13.0343 33.057 13.6379 31.9691 13.1158 30.9881C12.0924 29.0666 11.034 27.1662 9.99563 25.2535C9.87758 25.035 9.76534 25.0297 9.57412 25.1517C9.00629 25.5123 8.43347 25.8659 7.85068 26.1993C7.62953 26.3256 7.64782 26.438 7.75673 26.6327C8.17408 27.375 8.57813 28.1252 8.98634 28.8727C9.60572 30.0037 10.2268 31.1338 10.8428 32.2665C11.103 32.7456 11.4647 33.0465 11.8147 33.0535H11.8155ZM24.2363 8.97951C24.0068 9.0032 23.7765 9.0304 23.5471 9.04971C23.4074 9.06111 23.3301 9.1041 23.4174 9.26379C23.8522 10.0587 24.2878 10.8536 24.721 11.6503C24.795 11.7872 24.8565 11.7767 24.9322 11.6538C25.1001 11.3809 25.2647 11.1054 25.4451 10.8413C25.5665 10.6641 25.5582 10.5123 25.4509 10.3316C25.2705 10.0262 25.0909 9.7174 24.9438 9.39277C24.7941 9.06287 24.5871 8.90055 24.2355 8.97951H24.2363ZM11.7623 25.3324C11.7956 25.3166 11.8463 25.2947 11.8953 25.2701C12.7932 24.8218 12.8281 24.6744 12.2711 23.811C12.1664 23.6487 12.0674 23.625 11.9153 23.7224C11.6891 23.8681 11.4605 24.0102 11.2286 24.1453C11.1047 24.2173 11.0797 24.2962 11.1537 24.4261C11.2967 24.6753 11.4314 24.9297 11.5703 25.1815C11.6093 25.2526 11.6517 25.3219 11.7615 25.3324H11.7623Z" fill="#00FFFF"/>
<path d="M27.5169 1.33919C27.4653 1.55415 27.4071 1.81474 27.3423 2.07269C27.1785 2.72547 27.0189 3.37913 26.8435 4.02841C26.7063 4.53642 26.358 4.78911 25.9764 4.68558C25.564 4.57415 25.3669 4.17669 25.4917 3.6599C25.6879 2.84743 25.8957 2.03847 26.1036 1.22951C26.1526 1.03736 26.2224 0.851354 26.3754 0.719745C26.6015 0.524963 26.8535 0.487235 27.1187 0.614457C27.3897 0.745189 27.4944 0.990861 27.5177 1.33919H27.5169Z" fill="#00FFFF"/>
<path d="M32.3655 12.2829C32.3123 12.2715 32.2034 12.254 32.0978 12.2242C31.3412 12.0118 30.5847 11.8013 29.8306 11.5819C29.3626 11.4459 29.1215 11.0704 29.2221 10.6615C29.3251 10.2404 29.6951 10.0289 30.1673 10.1561C30.9896 10.3772 31.8101 10.608 32.6249 10.8563C32.9965 10.9695 33.2002 11.3371 33.1353 11.6846C33.068 12.046 32.782 12.2865 32.3655 12.2838V12.2829Z" fill="#00FFFF"/>
<path d="M4.83526 24.5639C3.96564 24.5683 3.40363 24.2506 2.99209 23.6373C2.73936 23.2618 2.78591 22.824 3.08853 22.5731C3.39614 22.3177 3.74698 22.3669 4.06041 22.7091C4.49522 23.1837 4.659 23.2057 5.21104 22.8687C5.49786 22.6941 5.78303 22.5134 6.07567 22.3493C6.46974 22.1291 6.86215 22.2265 7.06085 22.5792C7.26205 22.9381 7.1415 23.3855 6.75989 23.6286C6.39159 23.8637 6.01415 24.0857 5.6367 24.305C5.34157 24.4761 5.02564 24.5753 4.83443 24.5639H4.83526Z" fill="#00FFFF"/>
<path d="M8.75607 20.8218C9.11357 20.8113 9.43697 21.1324 9.45526 21.5167C9.47438 21.9071 9.16179 22.266 8.78767 22.2835C8.4177 22.3011 8.09347 21.9615 8.0918 21.5535C8.09014 21.171 8.39692 20.8323 8.75524 20.8218H8.75607Z" fill="#00FFFF"/>
</g>
<defs>
<clipPath id="clip0_487_168">
<rect width="34" height="34" fill="white" transform="translate(0 0.540771)"/>
</clipPath>
</defs>
</svg>
