<svg width="33" height="34" viewBox="0 0 33 34" fill="none" xmlns="http://www.w3.org/2000/svg">
<g clip-path="url(#clip0_487_160)">
<path d="M32.9998 2.42329C32.9465 2.54026 32.8974 2.65982 32.839 2.77335C32.4854 3.46231 31.9271 3.84162 31.146 3.85882C30.3373 3.87602 29.7309 3.51563 29.3833 2.79314C29.2474 2.51016 29.0883 2.43791 28.7975 2.43963C26.5763 2.44995 24.3552 2.44565 22.1504 2.44565C28.0998 5.25048 31.558 9.83833 31.5623 16.5171C31.5675 23.2019 28.1024 27.7794 22.1521 30.6006C22.67 30.6006 23.2162 30.6006 23.7633 30.6006C23.9027 30.6006 24.0429 30.5946 24.1814 30.6049C24.4748 30.6273 24.6726 30.8286 24.6761 31.0978C24.6804 31.3799 24.4756 31.5855 24.1642 31.6078C24.0679 31.6147 23.9715 31.6113 23.8743 31.6113C22.2003 31.6113 20.5262 31.619 18.8522 31.6052C18.5408 31.6027 18.4479 31.6973 18.4513 32.0061C18.4608 32.7268 18.1468 33.027 17.4388 33.0279C16.7945 33.0287 16.151 33.0304 15.5067 33.0279C14.9208 33.0244 14.5802 32.701 14.5742 32.1187C14.5681 31.5648 14.5836 31.613 14.0632 31.613C10.7796 31.613 7.49517 31.6164 4.2116 31.6061C3.92685 31.6061 3.77889 31.6809 3.6533 31.9501C3.27135 32.769 2.37153 33.1904 1.51214 32.9952C0.634683 32.7965 0.0153043 32.0336 0.00842227 31.1459C0.00154028 30.2127 0.577047 29.4584 1.46826 29.2313C2.34658 29.0077 3.27135 29.4343 3.66276 30.2798C3.78233 30.5378 3.92599 30.6092 4.19783 30.6084C6.42932 30.5972 8.66166 30.6023 10.9104 30.6023C10.8845 30.5034 10.7994 30.5086 10.7435 30.4837C5.76779 28.2826 2.65111 24.5291 1.6687 19.1843C0.788668 14.3935 2.07474 10.1127 5.28691 6.43056C5.55617 6.12264 5.85209 6.08393 6.09554 6.31186C6.34415 6.54409 6.32609 6.81933 6.02328 7.15908C4.60215 8.75631 3.55093 10.5668 3.00553 12.6346C1.68247 17.6576 2.71132 22.1586 6.17899 26.0403C8.30294 28.4177 10.9998 29.8214 14.1346 30.3873C14.5165 30.4561 14.5415 30.4363 14.5716 30.0355C14.6111 29.5074 14.9398 29.1909 15.4697 29.1875C16.1562 29.1823 16.8435 29.1832 17.53 29.1875C18.1012 29.1909 18.4436 29.4997 18.4479 30.0742C18.4504 30.4114 18.5941 30.4424 18.8659 30.3968C24.6262 29.4188 29.2268 24.9875 30.3055 19.2136C31.1701 14.587 29.9958 10.4688 26.8181 6.97329C24.6804 4.6226 22.0007 3.22147 18.878 2.65982C18.5158 2.59445 18.4866 2.61939 18.4556 2.99784C18.41 3.55606 18.0926 3.86054 17.5412 3.86398C16.8547 3.86828 16.1673 3.86828 15.4809 3.86398C14.9303 3.86054 14.6077 3.5466 14.5716 2.99354C14.5475 2.62283 14.5105 2.59445 14.1457 2.65896C11.8523 3.06321 9.77741 3.96375 7.93131 5.38552C7.88056 5.42509 7.82894 5.46379 7.77733 5.50164C7.47022 5.72527 7.17085 5.7158 6.97644 5.47669C6.76912 5.22296 6.82847 4.9331 7.15537 4.67679C7.62764 4.30522 8.12057 3.96117 8.63241 3.64551C9.36104 3.19653 10.1275 2.82238 10.9069 2.44909C10.8467 2.44909 10.7865 2.44909 10.7263 2.44909C8.5266 2.44909 6.32609 2.45167 4.12643 2.44479C3.90363 2.44479 3.78663 2.5093 3.68943 2.72003C3.30231 3.56466 2.47562 3.99558 1.58612 3.84764C0.808454 3.71518 0.122835 3.01591 0.0196055 2.24696C-0.10427 1.32234 0.350801 0.522435 1.21363 0.147426C1.29191 0.113021 1.36934 0.0760362 1.44676 0.0407715C1.76849 0.0407715 2.09108 0.0407715 2.41282 0.0407715C3.01843 0.270422 3.50705 0.62995 3.73932 1.26385C3.80126 1.4333 3.93288 1.43588 4.07826 1.43588C7.4685 1.43502 10.8579 1.43244 14.2473 1.44018C14.5105 1.44018 14.5948 1.34298 14.5716 1.10043C14.5286 0.639411 14.7049 0.285904 15.098 0.0416316H17.9317C18.2801 0.267842 18.4728 0.572322 18.4625 1.00496C18.4522 1.43502 18.4659 1.43588 18.9115 1.43588C22.2157 1.43588 25.5191 1.43588 28.8233 1.43588C28.8878 1.43588 28.9523 1.43158 29.016 1.43588C29.1511 1.4462 29.2414 1.39373 29.2896 1.26385C29.5236 0.63081 30.0105 0.271282 30.6169 0.0416316H31.583C32.2832 0.285904 32.7546 0.758107 32.9998 1.45824V2.42415V2.42329ZM15.6271 1.9098C15.6271 2.13515 15.6323 2.3605 15.6254 2.58499C15.6194 2.77421 15.6925 2.85765 15.8895 2.85334C16.3076 2.8456 16.7256 2.84474 17.1437 2.85334C17.3424 2.85765 17.4078 2.76905 17.4052 2.58241C17.3992 2.15407 17.3992 1.72487 17.4052 1.29568C17.4078 1.10645 17.3373 1.01872 17.1411 1.02732C16.9269 1.03678 16.7127 1.02904 16.4977 1.02904C15.9167 1.02904 15.6262 1.32234 15.6262 1.90894L15.6271 1.9098ZM17.4027 31.1098C17.4027 30.8845 17.4009 30.66 17.4027 30.4346C17.4044 30.2789 17.345 30.1947 17.1773 30.1955C16.7377 30.199 16.2981 30.199 15.8585 30.1955C15.6942 30.1938 15.6254 30.2678 15.6262 30.4277C15.6288 30.8776 15.6288 31.3283 15.6262 31.7781C15.6262 31.9338 15.6839 32.0181 15.8516 32.0172C16.2912 32.0138 16.7308 32.0138 17.1704 32.0172C17.3347 32.019 17.4044 31.9441 17.4027 31.7841C17.4001 31.5588 17.4027 31.3343 17.4027 31.109V31.1098ZM1.91817 1.05055C1.44246 1.05829 1.03212 1.46598 1.03298 1.92958C1.03384 2.41297 1.45364 2.8413 1.92678 2.84388C2.39647 2.84646 2.8352 2.40695 2.83348 1.93732C2.8309 1.46082 2.39991 1.0428 1.91817 1.05055ZM32.0028 1.94592C32.0079 1.472 31.5787 1.04797 31.0969 1.04969C30.6221 1.05141 30.2092 1.4548 30.2031 1.92098C30.1971 2.40264 30.6109 2.83356 31.0883 2.84302C31.5555 2.85248 31.9985 2.41813 32.0028 1.94592ZM1.9414 30.2162C1.4674 30.2084 1.05104 30.6006 1.03384 31.072C1.01663 31.5614 1.45106 32.0138 1.93538 32.0095C2.39561 32.0052 2.81541 31.5915 2.83176 31.127C2.84896 30.6565 2.42572 30.2248 1.9414 30.217V30.2162Z" fill="#00FFFF"/>
<path d="M33.0001 31.588C32.9511 31.6955 32.9063 31.8039 32.8539 31.9097C32.5037 32.6141 31.9429 33.0054 31.1497 33.0244C30.329 33.0433 29.7243 32.6709 29.3699 31.9372C29.2486 31.6852 29.1135 31.5974 28.8374 31.6043C28.0666 31.6232 27.2941 31.6129 26.5224 31.6095C26.1431 31.6078 25.9065 31.4091 25.9065 31.1046C25.9065 30.801 26.1431 30.6023 26.5233 30.6014C27.3268 30.598 28.1311 30.5971 28.9346 30.6023C29.1101 30.6031 29.2305 30.5739 29.3122 30.3881C29.6744 29.5658 30.3101 29.1427 31.2134 29.19C32.0624 29.2338 32.6182 29.7017 32.9304 30.4784C32.9502 30.5283 32.9769 30.5748 33.0001 30.6229V31.5888V31.588ZM31.1033 30.2144C30.6284 30.2127 30.2146 30.6117 30.2043 31.0805C30.1948 31.5605 30.6052 31.9931 31.0835 32.0077C31.5497 32.0215 31.9936 31.5906 32.0031 31.1166C32.0125 30.6444 31.585 30.217 31.1024 30.2152L31.1033 30.2144Z" fill="#00FFFF"/>
<path d="M16.5272 28.3248C10.0005 28.3283 4.70995 23.042 4.71167 16.518C4.71339 10.007 9.9936 4.72415 16.504 4.7207C23.0341 4.71726 28.3203 10.0001 28.3195 16.5266C28.3186 23.0351 23.035 28.3214 16.5272 28.3248ZM27.2708 16.5275C27.3345 10.6151 22.3949 5.75112 16.5117 5.7537C10.6181 5.75628 5.75601 10.628 5.74397 16.5C5.73193 22.3832 10.5906 27.2806 16.5005 27.2892C22.4061 27.2978 27.3293 22.4176 27.27 16.5266L27.2708 16.5275Z" fill="#00FFFF"/>
<path d="M12.1148 13.9247C13.5781 13.9247 14.7343 15.0764 14.7308 16.5325C14.7282 17.9689 13.5712 19.1189 12.1269 19.1206C10.6687 19.1224 9.48589 17.9474 9.50137 16.5128C9.51686 15.0712 10.673 13.9255 12.1148 13.9255V13.9247ZM13.6805 16.5119C13.677 15.638 12.9776 14.937 12.1122 14.9379C11.2683 14.9396 10.5423 15.6785 10.5474 16.5325C10.5517 17.372 11.2657 18.0945 12.101 18.1066C12.9742 18.1186 13.6848 17.4021 13.6805 16.5119Z" fill="#00FFFF"/>
<path d="M25.749 16.5257C25.749 17.9947 24.6101 19.1241 23.133 19.1206C21.6895 19.1172 20.5497 17.9698 20.5505 16.5188C20.5505 15.0549 21.6955 13.923 23.1709 13.9255C24.6178 13.9281 25.749 15.0695 25.7482 16.5257H25.749ZM24.7339 16.5515C24.7554 15.7103 24.0371 14.9646 23.1812 14.9388C22.3399 14.913 21.6052 15.6243 21.5742 16.4947C21.545 17.3359 22.2633 18.0842 23.1227 18.1083C23.9606 18.1315 24.7116 17.4056 24.7331 16.5515H24.7339Z" fill="#00FFFF"/>
<path d="M18.972 16.0002C19.1647 16.0002 19.3582 15.989 19.5509 16.0027C19.889 16.026 20.1066 16.2247 20.1058 16.5532C20.1015 17.7496 19.4898 18.8308 18.2889 19.0734C17.2962 19.2738 16.4299 18.9779 15.783 18.1909C15.0965 17.3557 14.9572 16.407 15.4217 15.423C15.8587 14.4975 16.6123 13.9875 17.6489 13.9264C18.1659 13.8955 18.6511 14.003 19.0967 14.2688C19.4511 14.4795 19.5569 14.7625 19.3926 15.0377C19.2266 15.3155 18.9418 15.362 18.5823 15.1702C17.8614 14.7848 17.0261 14.9362 16.5512 15.5374C16.0729 16.1421 16.0979 16.9927 16.6106 17.5776C17.3091 18.3741 18.5298 18.2485 18.9092 17.3488C19.0064 17.1175 18.9573 17.034 18.7087 17.0512C18.5814 17.0607 18.4498 17.059 18.3233 17.0426C18.0145 17.0013 17.8218 16.7837 17.8313 16.5059C17.8407 16.2419 18.0326 16.0372 18.3294 16.0096C18.5418 15.9898 18.7578 16.0062 18.972 16.0062C18.972 16.0053 18.972 16.0036 18.972 16.0027V16.0002Z" fill="#00FFFF"/>
<path d="M7.24761 16.5257C7.24761 15.9477 7.24589 15.3697 7.24847 14.7908C7.24847 14.6627 7.25363 14.5328 7.27342 14.4072C7.32504 14.0812 7.51859 13.9144 7.81022 13.929C8.09238 13.9427 8.28335 14.1449 8.28937 14.4657C8.29884 14.9474 8.29282 15.429 8.29282 15.9115C8.29282 16.511 8.3126 17.1114 8.28507 17.71C8.26959 18.0481 8.39088 18.1504 8.70745 18.1143C8.88725 18.0937 9.07134 18.104 9.25285 18.1143C9.55136 18.1306 9.76814 18.3551 9.7604 18.6269C9.75352 18.8893 9.5462 19.1086 9.26146 19.1155C8.76939 19.1275 8.27647 19.1292 7.78355 19.1155C7.42654 19.106 7.26052 18.9039 7.25105 18.4532C7.23729 17.8107 7.24761 17.1682 7.24761 16.5257Z" fill="#00FFFF"/>
</g>
<defs>
<clipPath id="clip0_487_160">
<rect width="33" height="33" fill="white" transform="translate(0 0.0407715)"/>
</clipPath>
</defs>
</svg>
