<svg width="55" height="56" viewBox="0 0 55 56" fill="none" xmlns="http://www.w3.org/2000/svg">
<rect y="0.0410156" width="55" height="55" rx="12" fill="#C7C7C7"/>
<rect y="0.0410156" width="55" height="55" rx="12" fill="url(#paint0_linear_188_502)"/>
<path d="M36.4118 44.541H18.5896C18.2177 44.1984 18.1239 43.9496 18.2521 43.6273C18.4114 43.2279 18.736 43.1748 19.1036 43.1846C19.5557 43.197 20.0085 43.1713 20.4588 43.1925C20.7705 43.2067 20.8979 43.1181 20.8971 42.7693C20.8962 41.7661 21.554 40.9799 22.5183 40.7868C23.0194 40.6868 23.5282 40.7355 24.0319 40.7479C24.3702 40.7559 24.533 40.6593 24.6027 40.2972C24.7516 39.5278 24.9488 38.7681 25.1262 38.0049C25.2002 37.6849 25.0774 37.5244 24.7577 37.5232C21.6366 37.5232 18.5165 37.5232 15.3954 37.5232C13.6037 37.5223 12.5025 36.3846 12.5017 34.534C12.5008 31.0588 12.5017 27.5844 12.5017 24.1091C12.5017 21.9735 12.4965 19.837 12.5043 17.7014C12.5086 16.522 13.1689 15.5268 14.1995 15.1115C14.5956 14.9522 15.0114 14.9105 15.4342 14.9105C21.0193 14.9123 26.6045 14.9088 32.1887 14.9185C32.5159 14.9185 32.72 14.8176 32.8982 14.5307C33.401 13.7188 33.9529 12.9396 34.4497 12.1241C34.937 11.3237 35.5844 10.7748 36.4764 10.541C36.8423 10.541 37.2082 10.541 37.5741 10.541C37.5939 10.549 37.6138 10.5605 37.6344 10.5649C39.3822 10.951 40.4102 12.9077 39.6534 14.644C39.5337 14.9185 39.6913 14.9026 39.8686 14.9159C41.4709 15.038 42.4981 16.1643 42.4981 17.8112C42.5006 23.4203 42.5006 29.0294 42.4981 34.6394C42.4972 36.3509 41.3607 37.5161 39.6973 37.5214C38.535 37.5259 37.3735 37.5223 36.2112 37.5223C34.1991 37.5223 32.1879 37.5223 30.1758 37.5223C29.7832 37.5223 29.7677 37.5445 29.8589 37.9411C30.0475 38.7584 30.2438 39.5738 30.4237 40.3937C30.478 40.6399 30.5873 40.7514 30.8413 40.7408C31.2279 40.7249 31.6162 40.7355 32.0028 40.7373C33.2495 40.7452 34.076 41.5616 34.1053 42.8339C34.1122 43.119 34.2232 43.1934 34.4772 43.1881C35.0257 43.1766 35.575 43.1784 36.1234 43.189C36.4945 43.1961 36.7683 43.4581 36.7984 43.8167C36.826 44.1426 36.6357 44.3515 36.4118 44.5384V44.541ZM27.4784 36.0986C31.2666 36.0986 35.0549 36.0986 38.8432 36.0986C39.2091 36.0986 39.575 36.1065 39.941 36.0897C40.5729 36.0605 41.0895 35.5434 41.1033 34.8926C41.1231 33.9523 41.1076 33.0111 41.1145 32.0708C41.1162 31.8291 41.0172 31.7246 40.7856 31.737C40.6676 31.7432 40.5488 31.737 40.4309 31.737C34.0493 31.737 27.6669 31.737 21.2854 31.737C21.0813 31.737 20.8764 31.7529 20.6766 31.6892C20.3693 31.5909 20.1868 31.3501 20.1833 31.0304C20.1799 30.7073 20.3529 30.4655 20.6594 30.3584C20.848 30.292 21.0426 30.3124 21.2354 30.3124C27.7031 30.3115 34.1716 30.3124 40.6392 30.3115C41.1067 30.3115 41.1128 30.3062 41.1128 29.8334C41.1128 27.6862 41.1128 25.5391 41.1128 23.392C41.1128 21.4998 41.1162 19.6068 41.1102 17.7147C41.1076 16.8691 40.5962 16.3476 39.7817 16.3396C39.4485 16.3361 39.1136 16.3502 38.7812 16.3352C38.5445 16.3246 38.3809 16.4078 38.2293 16.599C36.5556 18.7081 34.8905 20.8251 33.1849 22.9067C32.7527 23.4345 32.6089 23.9046 32.7019 24.6165C32.9593 26.5883 31.593 28.0377 30.1293 28.2432C29.4732 28.3352 28.8189 28.2883 28.1637 28.2679C27.3285 28.2423 26.5717 28.407 25.9217 29.0046C25.5136 29.38 24.9566 29.1826 24.811 28.6257C24.4822 27.3586 24.279 26.0783 24.4357 24.7564C24.7051 22.48 26.2489 20.9863 28.484 20.8809C28.6897 20.8712 28.8206 20.7941 28.9325 20.6215C29.7832 19.3031 30.6416 17.9891 31.4948 16.6725C31.5465 16.5928 31.6481 16.5114 31.6024 16.4113C31.5456 16.2874 31.4104 16.3423 31.3097 16.3414C29.9003 16.3378 28.49 16.3387 27.0806 16.3387C23.1313 16.3387 19.1811 16.3378 15.2318 16.3405C14.4363 16.3405 13.8947 16.8532 13.8939 17.635C13.887 21.7407 13.8913 25.8472 13.8861 29.9529C13.8861 30.2309 13.9946 30.3221 14.2538 30.3159C14.7161 30.3044 15.1793 30.3009 15.6417 30.3203C16.1359 30.3407 16.4363 30.7285 16.3391 31.1845C16.2693 31.5112 15.9955 31.722 15.5848 31.7335C15.1328 31.7467 14.6808 31.7459 14.2288 31.737C13.9783 31.7317 13.8844 31.8388 13.887 32.0929C13.8947 33.0111 13.887 33.9302 13.8939 34.8484C13.8973 35.3185 14.1229 35.6656 14.4991 35.9188C14.7772 36.1056 15.0898 36.1003 15.4032 36.1003C19.4282 36.1003 23.4533 36.1003 27.4784 36.1003V36.0986ZM38.5247 13.4443C38.5229 12.7732 38.114 12.1914 37.501 11.9878C36.8724 11.7788 36.2078 11.9851 35.8212 12.5713C34.5952 14.4289 33.3889 16.3007 32.1689 18.1627C32.0389 18.361 32.0906 18.4699 32.2611 18.5957C32.7243 18.9365 33.184 19.2836 33.6343 19.6431C33.8212 19.7927 33.9382 19.7741 34.0863 19.5873C35.4518 17.8634 36.8251 16.1466 38.1932 14.4262C38.4188 14.1429 38.5376 13.8171 38.5255 13.4461L38.5247 13.4443ZM28.6088 26.8619C29.0195 26.8619 29.3639 26.8734 29.7074 26.8592C30.4806 26.8283 31.0764 26.3475 31.2907 25.5816C31.4061 25.169 31.3786 24.7511 31.2925 24.334C31.2503 24.1277 31.1495 23.9763 30.9825 23.8515C30.4418 23.4495 29.8899 23.0599 29.3794 22.6208C29.0161 22.3082 28.6544 22.2188 28.1947 22.3109C27.3294 22.4844 26.5907 22.8456 26.1688 23.6806C25.6178 24.7697 25.7151 25.9287 25.8838 27.0886C25.9045 27.2285 25.9682 27.278 26.1077 27.2134C26.929 26.8371 27.7986 26.8229 28.608 26.861L28.6088 26.8619ZM27.4835 43.1872C29.0867 43.1872 30.6889 43.1872 32.2921 43.1872C32.7759 43.1872 32.8982 42.9862 32.6855 42.5311C32.5659 42.2761 32.3575 42.1663 32.0837 42.1663C29.029 42.1681 25.9734 42.1672 22.9186 42.1663C22.7387 42.1663 22.5751 42.2071 22.4477 42.3425C22.2608 42.54 22.1825 42.7923 22.2591 43.0447C22.3323 43.2873 22.5734 43.1819 22.7404 43.1828C24.322 43.1899 25.9028 43.1872 27.4844 43.1872H27.4835ZM27.4758 40.7381C27.9063 40.7381 28.3367 40.732 28.7672 40.7408C28.9876 40.7452 29.0918 40.6859 29.0315 40.4345C28.8215 39.5543 28.6183 38.6716 28.4177 37.7888C28.3729 37.5931 28.2679 37.517 28.075 37.5214C27.6876 37.5303 27.3001 37.5285 26.9127 37.5232C26.7353 37.5205 26.6312 37.5923 26.5898 37.7738C26.3858 38.6672 26.18 39.5605 25.9682 40.4513C25.9122 40.6886 26.0121 40.7435 26.217 40.7408C26.6363 40.7337 27.0565 40.739 27.4758 40.739V40.7381ZM31.32 19.6511C31.2072 19.6466 31.1659 19.7148 31.1246 19.7786C30.8189 20.247 30.5176 20.7189 30.2076 21.1846C30.0957 21.352 30.1379 21.4626 30.2851 21.5733C30.6769 21.8664 31.066 22.1621 31.4509 22.4649C31.6024 22.5845 31.7083 22.5729 31.8289 22.4171C32.1698 21.9753 32.5185 21.5397 32.8724 21.1076C32.9783 20.9783 32.9895 20.8933 32.8457 20.7862C32.3842 20.4426 31.9287 20.0885 31.4707 19.7396C31.4199 19.7007 31.3605 19.6741 31.3226 19.652L31.32 19.6511Z" fill="#1E1E1E"/>
<defs>
<linearGradient id="paint0_linear_188_502" x1="-12.1324" y1="-16.1003" x2="69.4623" y2="12.526" gradientUnits="userSpaceOnUse">
<stop stop-color="white"/>
<stop stop-color="#AAFFF5"/>
<stop offset="1" stop-color="#00FFE0"/>
</linearGradient>
</defs>
</svg>
