<svg width="33" height="33" viewBox="0 0 33 33" fill="none" xmlns="http://www.w3.org/2000/svg">
<g clip-path="url(#clip0_487_149)">
<path d="M25.503 3.71544C24.9062 3.13778 24.3461 2.6001 23.7915 2.05799C23.6778 1.9469 23.5916 1.94512 23.477 2.05799C22.9224 2.60099 22.3632 3.13867 21.8049 3.67812C21.8782 3.79276 21.9809 3.73766 22.0616 3.75277C22.3586 3.80787 22.5254 3.97584 22.5539 4.26734C22.563 4.35532 22.5584 4.44419 22.5584 4.53306C22.5584 8.55717 22.5584 12.5813 22.5584 16.6054C22.5584 17.0986 22.5584 17.1022 22.0561 17.0995C21.3373 17.0951 21.4143 17.1688 21.4134 16.4765C21.4107 13.4611 21.4125 10.4457 21.4125 7.43028C21.4125 7.13641 21.2634 6.98918 20.9651 6.98858C14.9962 6.98858 9.02639 6.98858 3.05748 6.98858C1.79421 6.98858 1.15157 7.61069 1.14974 8.82912C1.14882 9.3499 1.13965 9.87158 1.1534 10.3924C1.15982 10.6403 1.06081 10.7221 0.812374 10.7167C-0.14929 10.6972 0.0212245 10.8225 0.00563987 9.95067C-0.00261082 9.47432 0.00105615 8.99708 0.00563987 8.52073C0.0184743 7.05257 1.22124 5.88213 2.73937 5.88036C8.78895 5.87591 14.8376 5.87858 20.8872 5.87413C21.0568 5.87413 21.3107 5.97634 21.3804 5.77193C21.4675 5.5142 21.4428 5.22359 21.3841 4.95165C21.3621 4.84678 21.2392 4.86189 21.1494 4.861C20.8982 4.85833 20.6461 4.85567 20.3949 4.86011C20.1281 4.86455 19.921 4.76857 19.8165 4.52684C19.7138 4.29044 19.7633 4.07004 19.9531 3.88608C21.0366 2.83561 22.1166 1.7816 23.2066 0.737356C23.4779 0.476962 23.7896 0.476073 24.061 0.735579C25.151 1.77982 26.2309 2.83384 27.3145 3.8843C27.5043 4.06826 27.5565 4.28778 27.4538 4.52506C27.3503 4.76679 27.144 4.86811 26.8763 4.86011C26.7617 4.85655 26.648 4.86011 26.5334 4.86011C25.8495 4.86011 25.7065 5.04496 25.856 5.71061C25.9 5.90435 26.0411 5.87591 26.1732 5.8768C26.802 5.87947 27.4309 5.87502 28.0598 5.87947C29.5789 5.89102 30.789 7.05168 30.7917 8.51984C30.799 11.9565 30.7899 15.3932 30.8018 18.8298C30.8027 19.1604 30.6854 19.2449 30.3654 19.2342C29.544 19.2075 29.6513 19.3186 29.6504 18.5428C29.6467 15.2945 29.6485 12.0463 29.6485 8.79801C29.6485 8.41586 29.5944 8.04616 29.3744 7.71644C29.0316 7.20276 28.5191 7.00191 27.914 6.99036C27.3539 6.9797 26.7929 7.0028 26.2337 6.98147C25.9265 6.96992 25.8468 7.07479 25.8477 7.36273C25.8569 10.2564 25.8532 13.1492 25.8532 16.0428C25.8532 16.3918 25.6732 16.5666 25.3132 16.5672C25.1987 16.5672 25.0841 16.5618 24.9704 16.5672C24.7788 16.5752 24.6999 16.4863 24.7091 16.3068C24.7137 16.2179 24.7091 16.129 24.7091 16.041C24.7091 12.216 24.7091 8.39187 24.7091 4.56683C24.7091 3.92607 24.8145 3.8052 25.5048 3.71633L25.503 3.71544Z" fill="#00FFFF"/>
<path d="M9.89346 21.8896C7.66394 21.8896 5.43442 21.8896 3.2049 21.8896C2.75019 21.8896 2.74561 21.8878 2.74928 21.4514C2.75569 20.6836 2.65852 20.7884 3.44417 20.7796C3.82187 20.7751 4.19956 20.7645 4.57543 20.7831C4.8587 20.7973 4.95221 20.7031 4.94946 20.425C4.93663 19.2056 4.94304 17.9863 4.94396 16.767C4.94396 16.1351 5.09706 15.9885 5.75528 15.9885C6.69311 15.9885 7.63002 15.9885 8.56784 15.9885C9.2279 15.9885 9.38283 16.136 9.38283 16.7643C9.38283 17.9837 9.39016 19.203 9.37825 20.4223C9.3755 20.696 9.46167 20.792 9.74861 20.7831C10.5398 20.7609 10.4307 20.8622 10.4325 20.1344C10.4371 17.7624 10.4334 15.3904 10.4343 13.0184C10.4343 12.4247 10.5975 12.2639 11.2016 12.2639C12.1853 12.263 13.1681 12.2621 14.1517 12.2639C14.6917 12.2648 14.8732 12.4399 14.8732 12.9633C14.875 15.4242 14.8732 17.8841 14.8741 20.345C14.8741 20.6335 15.0263 20.7781 15.3307 20.7787C15.3765 20.7787 15.4223 20.7787 15.4682 20.7787C15.7713 20.7781 15.9235 20.6335 15.9247 20.345C15.9247 16.6764 15.9247 13.0077 15.9247 9.33912C15.9247 8.68147 16.0714 8.53928 16.7479 8.53839C17.7197 8.53839 18.6914 8.53661 19.6632 8.53839C20.1766 8.54017 20.3627 8.72146 20.3627 9.22537C20.3645 12.0737 20.3599 14.922 20.3691 17.7713C20.37 18.0734 20.2783 18.1792 19.9611 18.1694C19.0957 18.1419 19.2213 18.2627 19.2195 17.438C19.214 14.9771 19.2122 12.5172 19.2241 10.0563C19.2259 9.73993 19.1388 9.62262 18.8024 9.64217C18.3577 9.66795 17.9095 9.66706 17.4658 9.64217C17.1403 9.62351 17.0624 9.74171 17.0633 10.0412C17.0734 13.0335 17.0697 16.0267 17.0697 19.019C17.0697 19.8393 17.056 20.6596 17.0761 21.4799C17.0835 21.798 16.9835 21.8976 16.6508 21.8958C14.3983 21.8833 12.1459 21.8896 9.89346 21.8896ZM13.7273 17.0807C13.7273 15.9627 13.719 14.8447 13.7328 13.7267C13.7364 13.4485 13.6411 13.3588 13.3587 13.3694C12.8683 13.3872 12.3769 13.381 11.8865 13.3721C11.6747 13.3686 11.5757 13.4272 11.5766 13.6529C11.5821 15.9334 11.5821 18.213 11.5766 20.4934C11.5766 20.7111 11.6591 20.7867 11.8791 20.7822C12.3815 20.7725 12.8839 20.7653 13.3862 20.7849C13.6677 20.7956 13.7346 20.6871 13.7328 20.4347C13.7218 19.3167 13.7282 18.1987 13.7282 17.0807H13.7273ZM6.08989 18.9159C6.08989 19.4465 6.09539 19.9771 6.08714 20.5076C6.08439 20.7076 6.16414 20.7831 6.3695 20.7805C6.90579 20.7725 7.44117 20.7742 7.97746 20.7805C8.16906 20.7822 8.23965 20.704 8.23873 20.5218C8.23507 19.4714 8.23415 18.4209 8.23873 17.3713C8.23965 17.1714 8.16173 17.0958 7.95638 17.0985C7.432 17.1065 6.90671 17.1083 6.38233 17.0985C6.15773 17.0941 6.08072 17.1794 6.0853 17.3918C6.09539 17.9001 6.08897 18.4085 6.08897 18.9177L6.08989 18.9159Z" fill="#00FFFF"/>
<path d="M8.80985 24.018C6.39699 24.018 3.98504 24.018 1.57217 24.018C1.14313 24.018 1.13671 24.0269 1.15047 24.4499C1.18347 25.4604 1.86644 26.0958 2.94545 26.0985C5.28956 26.1038 7.63367 26.1003 9.97778 26.1003C12.1963 26.1003 14.4139 26.1074 16.6324 26.0931C16.9799 26.0914 17.0899 26.1882 17.0761 26.5251C17.045 27.3133 17.1614 27.2049 16.3537 27.2094C15.382 27.2156 14.4102 27.2174 13.4385 27.2067C13.1946 27.204 13.069 27.2716 12.9985 27.5106C12.6391 28.7131 12.2696 29.912 11.8874 31.1082C11.803 31.373 11.8699 31.4281 12.1404 31.4272C14.3131 31.4183 16.4857 31.4183 18.6575 31.4272C18.927 31.4281 19.004 31.373 18.9114 31.1091C18.7528 30.6585 18.6291 30.1963 18.4815 29.7422C18.4118 29.5289 18.4714 29.4276 18.6988 29.3547C19.5064 29.097 19.5046 29.089 19.7484 29.8613C19.8786 30.2746 20.0216 30.6851 20.1289 31.1037C20.1949 31.3588 20.3315 31.4574 20.59 31.4228C20.612 31.4201 20.6358 31.4228 20.6588 31.4228C21.5489 31.4245 21.5443 31.4245 21.4637 32.2902C21.4481 32.4537 21.3912 32.5381 21.2161 32.5319C21.1364 32.5292 21.0557 32.5337 20.976 32.5337C17.2595 32.5337 13.5439 32.5337 9.82744 32.5337C9.33881 32.5337 9.33423 32.5328 9.3379 32.0609C9.3434 31.3419 9.25814 31.4343 9.99979 31.4219C10.5984 31.4121 10.5352 31.5276 10.7313 30.8833C11.0715 29.768 11.4125 28.6526 11.77 27.5426C11.8599 27.2654 11.7939 27.2058 11.506 27.2067C8.63567 27.2156 5.76627 27.2129 2.89594 27.2111C1.16972 27.2103 0.0063703 26.0878 0.00545355 24.4224C0.00362007 20.3547 0.00545355 16.2862 0.00545355 12.2185C0.00545355 11.7333 0.0063703 11.7306 0.516079 11.7333C1.2183 11.7368 1.14955 11.6675 1.15047 12.3314C1.1523 15.712 1.15047 19.0927 1.15138 22.4734C1.15138 22.7625 1.30295 22.9074 1.60609 22.908C6.39699 22.908 11.1879 22.908 15.9788 22.908C16.5215 22.908 16.5242 22.908 16.5215 23.4288C16.5187 24.0784 16.5811 24.0171 15.9119 24.018C13.5448 24.0198 11.1778 24.018 8.81077 24.018H8.80985Z" fill="#00FFFF"/>
<path d="M30.776 24.0038C30.8154 25.0347 30.566 26.006 30.0673 26.9107C29.9243 27.1702 29.9729 27.3124 30.1746 27.5026C30.9611 28.2447 31.7431 28.9921 32.504 29.7591C33.4244 30.6869 33.0064 32.1631 31.7395 32.483C31.1005 32.6438 30.5413 32.4652 30.0756 32.0173C29.3055 31.2752 28.5327 30.534 27.7745 29.7804C27.5939 29.6009 27.4601 29.5707 27.219 29.6889C23.277 31.6289 18.6337 29.4925 17.6885 25.3119C16.8855 21.7606 19.4129 18.1987 23.1248 17.6494C26.9128 17.0887 30.3313 19.6153 30.7714 23.307C30.7989 23.5363 30.775 23.7718 30.775 24.0046L30.776 24.0038ZM29.6456 24.01C29.5704 21.0043 27.2382 18.7017 24.1543 18.715C21.0832 18.7292 18.7272 21.0514 18.7355 23.9966C18.7437 27.0423 21.1832 29.2978 24.2258 29.2756C27.2951 29.2534 29.5695 26.9276 29.6447 24.01H29.6456ZM31.8421 30.9197C31.8275 30.7287 31.7092 30.5954 31.5781 30.4692C30.9639 29.8746 30.3506 29.2792 29.7373 28.6846C29.2285 28.1914 29.2386 28.202 28.7225 28.6624C28.5171 28.8455 28.5629 28.9468 28.7335 29.1085C29.443 29.7831 30.1407 30.4683 30.8447 31.1481C30.9171 31.2183 30.9941 31.2859 31.0785 31.341C31.2343 31.4432 31.3984 31.4405 31.5634 31.3517C31.7385 31.2566 31.8183 31.1064 31.843 30.9197H31.8421Z" fill="#00FFFF"/>
<path d="M26.9027 1.1077C26.9027 0.512259 26.943 0.481154 27.5463 0.603796C28.9626 0.889963 29.9665 1.89066 30.2158 3.26195C30.3029 3.74274 30.258 3.7934 29.7492 3.79518C29.6694 3.79518 29.5879 3.7854 29.5099 3.79695C29.1909 3.84139 29.0781 3.70097 29.0323 3.40059C28.9058 2.57852 28.2412 1.89954 27.4188 1.74224C26.866 1.63648 26.9073 1.72536 26.9027 1.1077Z" fill="#00FFFF"/>
<path d="M3.31863 9.1168C2.93848 9.1168 2.74841 8.93077 2.74841 8.55869C2.74841 8.18662 2.95162 8.00235 3.35805 8.00591C3.71558 8.00591 3.89434 8.20291 3.89434 8.59691C3.89434 8.94351 3.70244 9.1168 3.31863 9.1168Z" fill="#00FFFF"/>
<path d="M5.49682 9.11684C4.94403 9.11684 4.94219 9.11684 4.94403 8.54184C4.94678 7.94285 4.90002 8.01039 5.57108 8.00684C6.09087 8.00417 6.09087 8.00684 6.08996 8.61383C6.08996 8.94917 5.89224 9.11684 5.49682 9.11684Z" fill="#00FFFF"/>
<path d="M7.7117 9.11676C7.33033 9.11676 7.13965 8.93131 7.13965 8.56042C7.13965 8.18953 7.33094 8.00468 7.71353 8.00587C8.09612 8.00705 8.2868 8.20346 8.28558 8.59508C8.28558 8.94287 8.09428 9.11676 7.7117 9.11676Z" fill="#00FFFF"/>
<path d="M24.1755 19.7148C26.6287 19.7122 28.5942 21.6007 28.5969 23.9647C28.5997 26.3713 26.6626 28.2732 24.2048 28.275C21.7241 28.2767 19.7687 26.3971 19.7668 24.0082C19.7641 21.6078 21.7058 19.7175 24.1755 19.7148ZM24.1975 20.8275C22.4392 20.8097 20.9128 22.2361 20.9247 23.97C20.9366 25.7368 22.2558 27.0965 24.147 27.1534C25.942 27.2067 27.4492 25.7199 27.4473 23.9691C27.4455 22.2832 25.9594 20.8462 24.1984 20.8284L24.1975 20.8275Z" fill="#00FFFF"/>
<path d="M24.2057 22.4564C24.2744 22.7524 24.1809 22.9675 23.7711 23.067C23.4567 23.1434 23.2385 23.41 23.1679 23.7344C23.1175 23.9699 22.9855 24.0384 22.7581 24.0197C22.6115 24.0073 22.4611 24.0055 22.3144 24.0197C21.978 24.0526 21.9257 23.8775 21.9844 23.6153C22.1733 22.7666 22.6885 22.1925 23.542 21.9259C24.1378 21.7401 24.2057 21.7979 24.2057 22.4564Z" fill="#00FFFF"/>
</g>
<defs>
<clipPath id="clip0_487_149">
<rect width="33" height="32" fill="white" transform="translate(0 0.540771)"/>
</clipPath>
</defs>
</svg>
