<svg width="35" height="35" viewBox="0 0 35 35" fill="none" xmlns="http://www.w3.org/2000/svg">
<g clip-path="url(#clip0_487_143)">
<path d="M0.5 15.4946C0.69585 15.0646 1.03438 14.8261 1.47925 14.6692C4.20964 13.7055 6.93382 12.7259 9.658 11.7462C9.79714 11.6966 10.0355 11.6886 10.0382 11.5387C10.0408 11.3712 9.80068 11.3809 9.66243 11.3402C8.64242 11.0405 8.37035 11.029 8.38187 9.58297C8.38187 9.48367 8.38187 9.38349 8.38542 9.28419C8.41289 8.46766 8.57063 8.21765 9.3629 8.01374C9.87247 7.88252 10.1924 7.66265 10.2925 7.11387C10.3634 6.72555 10.5584 6.36294 10.7658 6.0225C10.9191 5.7716 10.9093 5.55793 10.7533 5.31767C10.6275 5.12351 10.522 4.91428 10.4281 4.70239C10.2713 4.34688 10.3156 4.00998 10.5743 3.71387C10.8792 3.36367 11.2027 3.03032 11.5571 2.72889C11.8868 2.44873 12.2705 2.35475 12.625 2.61009C13.2321 3.04805 13.7939 3.07376 14.4231 2.65087C14.6987 2.46557 15.0532 2.3849 15.382 2.29269C15.5823 2.23684 15.6771 2.13134 15.7285 1.94427C15.7949 1.69869 15.8729 1.45666 15.9545 1.2164C16.098 0.791728 16.4002 0.563879 16.846 0.550581C17.266 0.539055 17.6861 0.537282 18.1062 0.550581C18.5626 0.565652 18.9241 0.781976 19.0092 1.23679C19.143 1.95136 19.4904 2.38312 20.2322 2.517C20.5725 2.57817 20.8906 2.77233 21.1901 2.96294C21.3505 3.0649 21.487 3.05958 21.6501 2.96294C21.8778 2.8273 22.1198 2.71647 22.3546 2.59235C22.733 2.39376 23.084 2.4505 23.3994 2.72268C23.7513 3.02589 24.0845 3.34949 24.384 3.70589C24.6552 4.0286 24.7456 4.41958 24.5054 4.74849C24.041 5.38417 24.0295 5.97019 24.4806 6.60409C24.6047 6.77874 24.6791 7.0057 24.7172 7.21937C24.7952 7.65202 25.0176 7.90114 25.4607 7.96232C25.6336 7.98625 25.8028 8.05275 25.9659 8.11924C26.2725 8.24425 26.4737 8.46323 26.5286 8.8019C26.6119 9.31877 26.6057 9.83653 26.5472 10.3552C26.4976 10.7931 26.2406 11.0502 25.8356 11.1788C25.5937 11.2559 25.3491 11.326 25.1072 11.4031C25.0283 11.4288 24.9104 11.4324 24.9184 11.5476C24.9246 11.638 25.0336 11.6407 25.1027 11.6655C26.2353 12.0742 27.3696 12.4803 28.5031 12.8872C30.1984 13.4954 31.8946 14.1018 33.589 14.7118C34.1916 14.9281 34.4849 15.3031 34.4876 15.8439C34.4902 16.3874 34.2102 16.7677 33.604 16.9885C31.9105 17.602 30.2134 18.2049 28.5181 18.8139C28.4083 18.8538 28.2806 18.8636 28.1761 18.9975C28.8762 19.2493 29.5594 19.4966 30.2436 19.7413C31.346 20.1358 32.4484 20.5321 33.5535 20.9204C34.0356 21.0898 34.3972 21.3655 34.4778 21.9001C34.5682 22.5021 34.2722 22.9746 33.6448 23.2034C32.2118 23.7255 30.7744 24.2336 29.3388 24.7487C29.2191 24.7912 29.1004 24.8391 28.893 24.918C29.7482 25.2247 30.5139 25.4996 31.2795 25.7744C32.1011 26.0705 32.9305 26.3454 33.7396 26.6699C34.5248 26.9846 34.7384 27.8747 34.2146 28.5006C34.0525 28.6948 33.8371 28.8003 33.6049 28.8836C30.6087 29.9555 27.6124 31.0291 24.6171 32.1028C22.3493 32.9157 20.0824 33.7296 17.8155 34.5426H17.1517C17.0596 34.5063 16.9683 34.4672 16.8743 34.4336C11.7432 32.5966 6.61302 30.7569 1.47837 28.9297C1.03438 28.7719 0.697623 28.5343 0.501772 28.1052V27.3756C0.711802 26.9385 1.06717 26.7 1.52179 26.5466C2.57814 26.1902 3.62475 25.8037 4.67489 25.4269C5.11534 25.2691 5.55312 25.1059 6.07686 24.9144C5.86152 24.8338 5.74011 24.7868 5.61693 24.7433C4.2442 24.2531 2.87413 23.7548 1.49698 23.2769C1.05653 23.1245 0.709143 22.8877 0.501772 22.4648V21.7352C0.681671 21.2928 1.0264 21.057 1.46862 20.9036C2.83337 20.4311 4.19103 19.9381 5.55135 19.4514C5.96077 19.3051 6.36842 19.1526 6.79292 18.9975C6.69986 18.8769 6.59706 18.8645 6.50667 18.8317C4.84593 18.2368 3.18696 17.6366 1.52179 17.055C1.07249 16.8981 0.710916 16.6649 0.501772 16.2269V15.4973L0.5 15.4946ZM33.1796 22.0907C33.0298 22.0251 32.9624 21.9905 32.8924 21.9648C30.7806 21.2086 28.6688 20.4559 26.5587 19.6943C26.354 19.6207 26.1759 19.6455 25.9818 19.7147C23.4136 20.6367 20.8401 21.5446 18.2781 22.4835C17.7242 22.6865 17.2279 22.6821 16.6767 22.4799C14.1147 21.541 11.5412 20.6323 8.97386 19.7076C8.76383 19.6322 8.57507 19.6349 8.36592 19.7103C6.90192 20.2413 5.43348 20.7626 3.96771 21.2884C3.26495 21.5402 2.56219 21.7946 1.84348 22.0535C1.95248 22.1838 2.0801 22.1944 2.18999 22.2334C7.16157 24.0146 12.1349 25.7895 17.103 27.5786C17.4078 27.6885 17.656 27.6309 17.9289 27.5334C21.7369 26.1725 25.5458 24.8151 29.3538 23.456C30.6007 23.011 31.8485 22.565 33.1796 22.0889V22.0907ZM33.1778 27.755C33.036 27.6938 32.9775 27.6646 32.9172 27.6424C31.0669 26.9784 29.2147 26.3179 27.3661 25.6494C27.1383 25.567 26.9372 25.606 26.7236 25.6831C23.8744 26.7027 21.0218 27.7142 18.1762 28.7444C17.7021 28.9155 17.2714 28.92 16.7972 28.748C13.9419 27.7125 11.0786 26.6991 8.22059 25.6698C7.9884 25.5865 7.78369 25.582 7.5515 25.6663C6.07775 26.2026 4.59957 26.7266 3.12316 27.2568C2.70221 27.4075 2.28215 27.5626 1.85589 27.7178C1.91526 27.833 2.00388 27.8295 2.07301 27.8534C7.08448 29.6505 12.0968 31.444 17.1065 33.2438C17.3635 33.336 17.5913 33.3218 17.843 33.2314C21.6908 31.8545 25.5405 30.483 29.3902 29.1097C30.6264 28.6691 31.8618 28.2258 33.1787 27.755H33.1778ZM33.1822 15.859C33.0076 15.7899 32.919 15.7508 32.8277 15.718C31.5489 15.2579 30.271 14.7969 28.9914 14.3385C27.577 13.8314 26.16 13.3323 24.7482 12.8172C24.5231 12.7347 24.4398 12.7888 24.3096 12.9856C24.0331 13.4032 24.041 13.7738 24.3388 14.1657C24.431 14.2871 24.4948 14.4343 24.5506 14.577C24.6809 14.9121 24.6446 15.2313 24.4079 15.5097C24.0924 15.8803 23.761 16.2367 23.3791 16.5417C23.0645 16.7934 22.725 16.8475 22.3599 16.6578C22.1144 16.531 21.8654 16.4105 21.6253 16.2748C21.4737 16.1888 21.3452 16.1897 21.1946 16.2837C20.9039 16.4663 20.599 16.6543 20.2667 16.7163C19.5108 16.8582 19.1244 17.2846 18.9968 18.0382C18.925 18.4637 18.5723 18.6756 18.1434 18.6925C17.7021 18.7093 17.259 18.7084 16.8176 18.6925C16.3763 18.6765 16.0785 18.4318 15.9421 18.0072C15.8676 17.7758 15.7914 17.5444 15.7294 17.3094C15.6797 17.1215 15.5831 17.0115 15.3846 16.9575C15.0975 16.8794 14.7909 16.8094 14.5472 16.6516C13.871 16.2163 13.2427 16.1578 12.5656 16.6631C12.2643 16.8883 11.901 16.7934 11.6112 16.5558C11.2257 16.2402 10.8703 15.8918 10.5566 15.5035C10.3094 15.1976 10.281 14.8607 10.4432 14.5088C10.5079 14.3687 10.5752 14.2259 10.6647 14.1018C10.9173 13.7516 10.9324 13.4325 10.6913 13.0459C10.5336 12.7932 10.421 12.7471 10.1516 12.8455C8.15767 13.5699 6.1584 14.2782 4.1609 14.9928C3.39433 15.2668 2.62777 15.5425 1.79297 15.8422C1.95603 15.9131 2.05085 15.961 2.15011 15.9964C7.14296 17.782 12.1376 19.5658 17.1287 21.3557C17.3618 21.4391 17.5647 21.4355 17.7978 21.3522C21.8131 19.9151 25.8312 18.4868 29.8483 17.055C30.9295 16.6693 32.0089 16.2801 33.1804 15.8599L33.1822 15.859ZM13.5839 14.8785C13.7611 14.8687 13.902 14.9574 14.042 15.0487C14.5082 15.3519 14.9991 15.6586 15.5415 15.7322C16.4233 15.8528 16.8291 16.3484 16.9479 17.1694C16.994 17.4885 17.2111 17.5329 17.4796 17.5311C17.7437 17.5302 17.9582 17.4956 18.0193 17.1756C18.0601 16.9601 18.1593 16.7553 18.209 16.5408C18.2967 16.1613 18.5271 15.9574 18.9073 15.8847C19.4426 15.7819 19.9628 15.6108 20.4262 15.3279C21.5535 14.6409 21.3754 14.7898 22.4211 15.3448C22.7507 15.5194 22.8899 15.3545 23.0919 15.1701C23.3037 14.976 23.3684 14.8058 23.1859 14.5504C23.0458 14.3545 22.9634 14.1178 22.842 13.9077C22.686 13.6399 22.6976 13.3908 22.8642 13.1301C23.2984 12.4546 23.6086 11.7249 23.769 10.9359C23.8275 10.6477 24.0021 10.4687 24.283 10.388C24.5267 10.3179 24.7651 10.2169 25.0141 10.1734C25.3872 10.1087 25.3544 9.84982 25.3677 9.57765C25.3828 9.28685 25.2906 9.12284 24.9911 9.06787C24.7748 9.02797 24.5701 8.93488 24.3557 8.88169C24.0189 8.79835 23.8257 8.59976 23.7557 8.25488C23.6431 7.69989 23.5102 7.12362 23.1681 6.68122C22.6089 5.95866 22.7117 5.31147 23.2062 4.64477C23.3693 4.4249 23.309 4.2662 23.1185 4.11105C22.9271 3.95501 22.7995 3.65624 22.4627 3.88497C22.2536 4.02683 22.0152 4.12612 21.7936 4.25024C21.5047 4.4116 21.2309 4.40362 20.9518 4.21921C20.4697 3.90093 19.961 3.58443 19.3947 3.50375C18.5448 3.38318 18.1372 2.91595 18.0299 2.11449C17.9856 1.78291 17.7632 1.71908 17.4849 1.72085C17.2111 1.72263 16.9869 1.77316 16.9319 2.1074C16.8983 2.31308 16.7999 2.50636 16.7529 2.71027C16.6652 3.09238 16.4277 3.29097 16.0511 3.3619C15.5371 3.45942 15.0355 3.62344 14.5933 3.89384C13.4492 4.59423 13.5821 4.47188 12.5071 3.88497C12.1562 3.69348 12.0419 3.95147 11.8478 4.1075C11.6404 4.27507 11.6032 4.44174 11.7627 4.67314C11.9001 4.87173 11.9878 5.10401 12.1128 5.31235C12.2874 5.60226 12.2652 5.87001 12.0835 6.14928C11.6582 6.80445 11.3595 7.51548 11.2027 8.28237C11.138 8.59887 10.9545 8.78683 10.647 8.87282C10.3811 8.9473 10.1224 9.05102 9.85385 9.1122C9.55077 9.18046 9.60217 9.40565 9.60572 9.60779C9.60926 9.81613 9.53394 10.0617 9.85474 10.138C10.1339 10.2036 10.4051 10.3011 10.6807 10.3818C10.9324 10.4562 11.122 10.6052 11.177 10.8667C11.3498 11.7001 11.6768 12.4679 12.1323 13.1833C12.2776 13.4112 12.2705 13.6381 12.1411 13.8722C11.9967 14.1328 11.8629 14.4006 11.7229 14.6639C11.6715 14.7614 11.613 14.8448 11.6874 14.968C11.9577 15.4122 12.2289 15.4973 12.68 15.2615C12.8563 15.1693 13.0309 15.0744 13.2064 14.9795C13.3251 14.9157 13.4474 14.8687 13.5848 14.8776L13.5839 14.8785Z" fill="#00FFFF"/>
<path d="M15.6745 26.0626C15.6257 26.0484 15.5185 26.0227 15.4157 25.9863C13.4404 25.2806 11.465 24.574 9.49056 23.8647C9.35674 23.8169 9.21849 23.761 9.10683 23.6768C8.88971 23.5119 8.82945 23.2778 8.92073 23.0243C9.00669 22.7867 9.18305 22.6484 9.44625 22.6386C9.58184 22.6342 9.70768 22.6643 9.8344 22.7095C11.8301 23.4241 13.8267 24.1369 15.8234 24.8506C16.0945 24.9472 16.3329 25.0767 16.3719 25.4029C16.4189 25.7921 16.1353 26.0883 15.6754 26.0634L15.6745 26.0626Z" fill="#00FFFF"/>
<path d="M16.3736 31.0353C16.3781 31.5637 16.0041 31.835 15.569 31.6941C14.9912 31.507 14.4213 31.2951 13.8488 31.0912C12.4034 30.5734 10.9581 30.0539 9.51266 29.5353C9.42935 29.5051 9.34428 29.4794 9.26452 29.4413C8.94017 29.2835 8.80813 28.9829 8.92245 28.6744C9.03322 28.373 9.34605 28.2143 9.68192 28.3242C10.2482 28.5104 10.8074 28.7205 11.3684 28.9209C12.866 29.4564 14.3628 29.9954 15.8614 30.5273C16.1583 30.6328 16.3657 30.7969 16.3719 31.0353H16.3736Z" fill="#00FFFF"/>
<path d="M12.3548 9.62734C12.3415 7.00043 14.393 4.51891 17.5027 4.48611C20.3111 4.45685 22.6099 6.80627 22.6081 9.63709C22.6063 12.4546 20.2942 14.7668 17.4761 14.7694C14.6695 14.7721 12.3512 12.4449 12.3539 9.62734H12.3548ZM21.3896 9.63797C21.394 7.44992 19.6668 5.69983 17.4965 5.69362C15.3395 5.68741 13.5839 7.42509 13.5733 9.5768C13.5627 11.7888 15.2872 13.5486 17.4682 13.5504C19.6473 13.5522 21.3852 11.8181 21.3905 9.63797H21.3896Z" fill="#00FFFF"/>
<path d="M17.4929 6.7601C19.1359 6.79468 20.3881 8.08819 20.3491 9.70884C20.3119 11.232 18.987 12.5228 17.4875 12.4962C15.8552 12.467 14.5861 11.1672 14.6136 9.55369C14.6402 8.01371 15.9651 6.72819 17.4929 6.7601ZM19.127 9.62373C19.127 8.69726 18.403 7.96761 17.4716 7.95609C16.5819 7.94456 15.8374 8.6946 15.8348 9.60511C15.8321 10.5413 16.5535 11.2843 17.4716 11.2896C18.3862 11.2949 19.127 10.5493 19.127 9.62373Z" fill="#00FFFF"/>
</g>
<defs>
<clipPath id="clip0_487_143">
<rect width="34" height="34" fill="white" transform="translate(0.5 0.540771)"/>
</clipPath>
</defs>
</svg>
