<svg width="34" height="33" viewBox="0 0 34 33" fill="none" xmlns="http://www.w3.org/2000/svg">
<g clip-path="url(#clip0_487_133)">
<path d="M34 25.1181C33.6942 25.7741 33.2235 26.1975 32.4469 26.1896C32.3335 26.1887 32.2581 26.2386 32.2226 26.3462C32.2023 26.4083 32.1854 26.473 32.1535 26.5298C31.8982 26.9961 31.7998 27.394 32.2031 27.8996C32.5852 28.3781 32.4629 28.9886 32.0773 29.4819C31.7528 29.8966 31.3716 30.2666 30.9576 30.5946C30.3779 31.0547 29.604 31.0538 29.0366 30.5744C28.8115 30.3846 28.6289 30.354 28.3939 30.5062C28.3487 30.536 28.2947 30.557 28.2415 30.5701C27.8204 30.6768 27.5757 30.8535 27.5243 31.3678C27.4534 32.0781 26.7956 32.5303 26.0634 32.5373C25.676 32.5416 25.2895 32.5399 24.9021 32.5373C24.0209 32.532 23.3818 31.9722 23.3135 31.108C23.2949 30.8675 23.2045 30.7476 22.9847 30.6943C22.9527 30.6864 22.9208 30.6733 22.8925 30.6575C22.459 30.4161 22.0946 30.3357 21.6275 30.7135C21.1266 31.1194 20.3731 30.9847 19.8864 30.5456C19.5522 30.2438 19.2295 29.928 18.9228 29.5983C18.3741 29.0087 18.3599 28.1988 18.8953 27.5725C19.0549 27.3853 19.1063 27.2357 18.9662 27.0284C18.906 26.9392 18.8705 26.8325 18.8288 26.731C18.6781 26.3666 18.4072 26.1843 18.0159 26.1843C16.4345 26.1843 14.853 26.1843 13.2724 26.1843C13.1616 26.1843 13.0508 26.1887 12.9408 26.1773C12.6013 26.1397 12.354 25.8843 12.3256 25.5502C12.2973 25.2248 12.5091 24.9178 12.8389 24.8417C13.0091 24.8023 13.1891 24.7909 13.3646 24.7909C14.4044 24.7866 15.4434 24.7813 16.4832 24.7936C16.7669 24.7971 16.8892 24.7131 16.8679 24.4201C16.8476 24.1375 16.8617 23.8533 16.8644 23.569C16.8733 22.6917 17.4211 22.0645 18.3005 21.9788C18.57 21.9525 18.703 21.8554 18.757 21.6123C18.7641 21.5808 18.7765 21.5493 18.7925 21.5204C19.0248 21.1137 19.0886 20.7778 18.7242 20.344C18.2996 19.8384 18.4361 19.0748 18.906 18.5701C19.1976 18.2569 19.5026 17.9543 19.8208 17.6674C20.4529 17.098 21.2862 17.0927 21.9182 17.6569C22.0796 17.8003 22.209 17.8275 22.381 17.7111C22.4262 17.6805 22.4785 17.6569 22.5308 17.642C23.0042 17.5056 23.3162 17.307 23.3774 16.7201C23.4438 16.0824 24.0892 15.646 24.7638 15.6145C25.1938 15.5943 25.6272 15.5943 26.0572 15.6136C26.8958 15.6503 27.4871 16.218 27.5677 17.07C27.5872 17.2773 27.652 17.3971 27.8567 17.4391C27.8887 17.4452 27.9206 17.4575 27.9498 17.4723C28.417 17.7155 28.8656 17.9123 29.315 17.4076C29.4435 17.2633 29.6935 17.2283 29.9081 17.2414C30.1509 17.2554 30.2041 17.1382 30.2041 16.9248C30.1988 14.9392 30.1988 12.9528 30.2041 10.9672C30.2041 10.7468 30.1341 10.6357 29.9001 10.6567C29.8229 10.6637 29.7449 10.6567 29.6678 10.6567C20.4343 10.6567 11.2007 10.6567 1.96713 10.6567C1.60072 10.6567 1.41722 10.8337 1.41663 11.1876C1.41663 14.9305 1.42017 18.6724 1.41308 22.4153C1.4122 23.0442 1.5168 23.6293 1.92192 24.1358C2.25612 24.5539 2.67277 24.7927 3.22859 24.7892C4.40052 24.7813 5.57244 24.7857 6.74525 24.7892C6.92077 24.7892 7.10162 24.7988 7.27093 24.839C7.59361 24.9151 7.81878 25.2379 7.79307 25.5476C7.7647 25.8869 7.4961 26.1738 7.14239 26.1765C5.70541 26.1852 4.264 26.2368 2.83145 26.1546C1.73399 26.0916 0.975162 25.398 0.460118 24.4655C0.176445 23.953 0.00535454 23.3984 0.00535454 22.808C0.00446806 16.5154 -0.012375 10.2193 0.0186517 3.92411C0.0257435 2.51409 0.710991 1.41984 2.03007 0.77694C2.382 0.604625 2.76053 0.540771 3.15501 0.540771C11.581 0.543396 20.007 0.540771 28.4338 0.545145C29.6926 0.545145 30.5499 1.20904 31.1411 2.24818C31.5011 2.88059 31.626 3.57598 31.626 4.29673C31.6252 8.78131 31.6278 13.2659 31.6207 17.7505C31.6207 18.054 31.6925 18.2806 31.9195 18.501C32.5533 19.1185 32.5719 19.9442 31.9815 20.6125C31.8406 20.7726 31.8131 20.9046 31.9248 21.0752C31.9363 21.0936 31.9478 21.1137 31.9532 21.1338C32.095 21.6534 32.3264 22.0068 32.9682 22.075C33.5036 22.1319 33.8103 22.5946 34.0018 23.0879V25.1172L34 25.1181ZM15.8201 9.25453C19.9999 9.25453 24.1787 9.25453 28.3585 9.25453C28.8673 9.25453 29.3762 9.24753 29.8841 9.25715C30.1022 9.26152 30.2059 9.20117 30.205 8.96325C30.197 7.30482 30.2192 5.64639 30.1926 3.98884C30.1722 2.70478 29.3434 1.93592 28.0535 1.93592C19.8935 1.93592 11.7344 1.93592 3.57432 1.93592C3.44135 1.93592 3.30926 1.93942 3.17629 1.93854C2.65947 1.93329 2.26587 2.17121 1.95029 2.55171C1.55403 3.03017 1.41308 3.58822 1.41663 4.19789C1.42372 5.72511 1.4184 7.25234 1.4184 8.77956C1.4184 9.09504 1.5756 9.25336 1.89001 9.25453C6.53338 9.25453 11.1776 9.25453 15.821 9.25453H15.8201ZM22.0273 28.7699C22.2134 28.7673 22.3685 28.853 22.521 28.9414C22.9997 29.2213 23.5094 29.4242 24.0484 29.5624C24.5484 29.6901 24.7186 29.9167 24.7266 30.4284C24.7381 31.1946 24.6051 31.1448 25.457 31.1448C26.254 31.1448 26.1591 31.1867 26.168 30.4695C26.1751 29.9141 26.3444 29.6971 26.879 29.5607C27.3967 29.4286 27.8842 29.2283 28.347 28.9676C28.8771 28.6694 29.1022 28.6991 29.5464 29.1303C29.8596 29.4347 30.1749 29.4303 30.4922 29.1172C30.8474 28.7667 30.8495 28.409 30.4984 28.0439C30.1572 27.6888 30.1181 27.4334 30.3628 27.0144C30.6509 26.5202 30.8752 26.0024 31.0215 25.4487C31.142 24.9912 31.3734 24.8189 31.8486 24.7936C32.3556 24.7673 32.6091 24.5035 32.6091 24.002C32.61 23.2768 32.6287 23.3748 31.9611 23.3695C31.3512 23.3643 31.1589 23.2209 31.002 22.6383C30.8646 22.1292 30.6598 21.649 30.3894 21.1942C30.1075 20.7201 30.1403 20.4918 30.5357 20.0929C31.1039 19.5217 31.111 19.653 30.5321 19.0783C29.9595 18.5106 30.0658 18.5176 29.4985 19.0704C29.12 19.4395 28.8629 19.4806 28.4019 19.2243C27.8984 18.9444 27.3745 18.7196 26.8125 18.5806C26.3311 18.4607 26.16 18.2342 26.1538 17.7365C26.1449 16.9423 26.2522 17.0192 25.4278 17.0166C24.7346 17.014 24.7346 17.0166 24.7124 17.7111C24.6947 18.2534 24.5236 18.466 23.9837 18.6094C23.4678 18.7459 22.982 18.9506 22.521 19.2165C22.0308 19.4999 21.7861 19.4666 21.3739 19.0687C20.8287 18.5412 20.9564 18.5185 20.3961 19.0687C20.0374 19.4203 20.0365 19.7798 20.3935 20.1472C20.7339 20.497 20.7747 20.7594 20.53 21.1758C20.2508 21.6508 20.0327 22.1485 19.8926 22.6803C19.7552 23.1999 19.5398 23.3643 19.0017 23.3695C18.226 23.3774 18.289 23.2707 18.2872 24.0676C18.286 24.5335 18.5263 24.7752 19.0079 24.7927C19.5132 24.8119 19.7605 24.9729 19.8696 25.4006C20.0167 25.977 20.257 26.5123 20.5522 27.0275C20.772 27.4115 20.7348 27.6949 20.4387 28.009C20.074 28.395 20.0785 28.7717 20.452 29.1391C20.9626 29.6376 20.8447 29.6473 21.3792 29.1233C21.5627 28.944 21.7436 28.7691 22.0264 28.7699H22.0273Z" fill="#00FFFF"/>
<path d="M16.5009 17.7374C16.4965 17.9762 16.4114 18.1878 16.2536 18.3645C15.6384 19.0512 15.0223 19.736 14.3991 20.4157C14.2094 20.6221 13.9709 20.7192 13.6819 20.6361C13.3982 20.5548 13.236 20.3632 13.1731 20.0868C13.1163 19.8384 13.2263 19.639 13.3858 19.4614C13.8317 18.9628 14.2688 18.4546 14.7333 17.9727C14.9256 17.7723 14.9035 17.6551 14.7226 17.4671C14.2803 17.0087 13.861 16.5303 13.4364 16.0562C13.0773 15.6564 13.0702 15.2497 13.4089 14.9611C13.7316 14.6864 14.1411 14.7441 14.4868 15.1229C15.0568 15.7474 15.6206 16.3763 16.1871 17.0026C16.3768 17.2125 16.5062 17.447 16.5018 17.7374H16.5009Z" fill="#00FFFF"/>
<path d="M6.42695 14.7896C6.69998 14.8105 6.91274 14.9251 7.04216 15.17C7.19464 15.4596 7.12904 15.7281 6.92692 15.959C6.48723 16.4629 6.04665 16.9676 5.58036 17.4469C5.36938 17.6629 5.37913 17.7924 5.58213 18.0032C6.03158 18.4685 6.4562 18.9575 6.88082 19.4456C7.20794 19.8217 7.20084 20.2048 6.88082 20.4891C6.56701 20.7681 6.17341 20.7288 5.83123 20.3588C5.22843 19.7062 4.63094 19.0476 4.04321 18.3828C3.68861 17.9813 3.67266 17.5055 4.02282 17.1023C4.62651 16.4069 5.25236 15.7307 5.87113 15.0476C6.01828 14.8849 6.20533 14.8018 6.42606 14.7913L6.42695 14.7896Z" fill="#00FFFF"/>
<path d="M9.49412 21.1451C9.00567 21.153 8.69186 20.7611 8.80976 20.2582C9.13244 18.8893 9.46753 17.523 9.79818 16.155C9.89836 15.7412 9.99232 15.3266 10.0987 14.9146C10.2157 14.4581 10.5747 14.2158 10.9692 14.3146C11.3717 14.4152 11.5738 14.7817 11.4639 15.24C11.0428 17.0008 10.6182 18.7607 10.1909 20.5197C10.0889 20.9378 9.85403 21.139 9.49412 21.1451Z" fill="#00FFFF"/>
<path d="M10.0499 26.1843C9.65811 26.1782 9.35937 25.8764 9.36557 25.4916C9.37178 25.1137 9.68648 24.811 10.073 24.811C10.4639 24.811 10.7981 25.1504 10.7813 25.5292C10.7644 25.9044 10.4453 26.1904 10.0499 26.1843Z" fill="#00FFFF"/>
<path d="M22.8836 7.85413C21.9111 7.85413 20.9395 7.85851 19.9671 7.85326C18.656 7.84626 17.6569 6.87709 17.656 5.61665C17.6542 4.35533 18.6551 3.36867 19.9582 3.3643C21.9244 3.35818 23.8915 3.3573 25.8577 3.3643C27.0208 3.36867 27.9897 4.21538 28.1165 5.31401C28.2539 6.50535 27.5332 7.52525 26.3603 7.8069C26.1857 7.84888 26.0111 7.85413 25.8338 7.85413C24.8507 7.85501 23.8676 7.85413 22.8845 7.85413H22.8836ZM22.88 6.45374C23.8303 6.45374 24.7806 6.45461 25.7309 6.45374C25.9074 6.45374 26.0838 6.45636 26.2486 6.37239C26.5961 6.19483 26.7867 5.81083 26.7016 5.44346C26.6041 5.02535 26.3001 4.77257 25.8453 4.77082C23.9119 4.76469 21.9776 4.76644 20.0442 4.76819C19.4387 4.76819 19.085 5.08221 19.0797 5.60615C19.0744 6.13185 19.4228 6.44936 20.03 6.45286C20.9803 6.45811 21.9306 6.45461 22.8809 6.45461L22.88 6.45374Z" fill="#00FFFF"/>
<path d="M14.3176 5.6359C14.3114 6.88759 13.3079 7.85851 12.027 7.85326C10.7921 7.84801 9.76645 6.83511 9.76733 5.62103C9.76733 4.37808 10.8134 3.35643 12.0775 3.3643C13.3345 3.37218 14.3238 4.37633 14.3176 5.63677V5.6359ZM12.8993 5.60178C12.8957 5.10933 12.5358 4.76382 12.0323 4.76994C11.5456 4.77607 11.1839 5.14956 11.1919 5.63677C11.1999 6.09774 11.5695 6.44762 12.0518 6.44937C12.5526 6.45112 12.9028 6.10124 12.8993 5.60178Z" fill="#00FFFF"/>
<path d="M6.21333 7.85327C4.96871 7.8489 3.92178 6.80451 3.94571 5.59042C3.96965 4.3536 5.00506 3.35557 6.25588 3.36431C7.48365 3.37219 8.5164 4.38946 8.52526 5.60092C8.53501 6.83687 7.48631 7.85852 6.21333 7.85415V7.85327ZM6.23017 6.44938C6.72394 6.44938 7.09892 6.09163 7.10247 5.61579C7.10601 5.1487 6.71862 4.76821 6.23992 4.76908C5.75856 4.76996 5.36408 5.14695 5.36142 5.60792C5.35965 6.07763 5.74261 6.44763 6.23017 6.4485V6.44938Z" fill="#00FFFF"/>
<path d="M25.4463 28.149C23.1849 28.1481 21.3144 26.3078 21.3162 24.0878C21.3179 21.8617 23.2185 19.9951 25.4729 20.0047C27.7254 20.0152 29.5755 21.8617 29.5728 24.0974C29.5702 26.3305 27.7165 28.1499 25.4454 28.149H25.4463ZM28.15 24.0948C28.1518 22.6235 26.9488 21.4138 25.4764 21.4077C23.9783 21.4007 22.7452 22.6034 22.7398 24.0773C22.7345 25.5581 23.9455 26.7477 25.4587 26.746C26.9666 26.7442 28.1483 25.58 28.1509 24.0948H28.15Z" fill="#00FFFF"/>
</g>
<defs>
<clipPath id="clip0_487_133">
<rect width="34" height="32" fill="white" transform="translate(0 0.540771)"/>
</clipPath>
</defs>
</svg>
