<svg width="31" height="35" viewBox="0 0 31 35" fill="none" xmlns="http://www.w3.org/2000/svg">
<path d="M24.4118 34.5408H6.58964C6.2177 34.1981 6.12385 33.9493 6.25214 33.627C6.41142 33.2277 6.73601 33.1746 7.10364 33.1843C7.55566 33.1967 8.00853 33.171 8.45882 33.1923C8.77049 33.2064 8.89792 33.1179 8.89706 32.7691C8.89619 31.7659 9.55398 30.9796 10.5183 30.7866C11.0194 30.6866 11.5282 30.7353 12.0319 30.7476C12.3702 30.7556 12.533 30.6591 12.6027 30.297C12.7516 29.5275 12.9488 28.7679 13.1262 28.0046C13.2002 27.6847 13.0774 27.5241 12.7577 27.523C9.63663 27.523 6.51646 27.523 3.39542 27.523C1.60373 27.5221 0.502548 26.3843 0.501687 24.5338C0.500826 21.0585 0.501687 17.5842 0.501687 14.1089C0.501687 11.9733 0.496521 9.83676 0.50427 7.70114C0.508575 6.52176 1.16894 5.52655 2.19953 5.11129C2.59558 4.95192 3.01143 4.9103 3.43417 4.9103C9.01931 4.91207 14.6045 4.90853 20.1887 4.91827C20.5159 4.91827 20.72 4.81733 20.8982 4.53046C21.401 3.71853 21.9529 2.93937 22.4497 2.1239C22.937 1.32348 23.5844 0.774521 24.4764 0.540771C24.8423 0.540771 25.2082 0.540771 25.5741 0.540771C25.5939 0.54874 25.6138 0.560251 25.6344 0.564678C27.3822 0.950719 28.4102 2.90749 27.6534 4.64379C27.5337 4.91827 27.6913 4.90233 27.8686 4.91562C29.4709 5.0378 30.4981 6.16405 30.4981 7.81093C30.5006 13.42 30.5006 19.0292 30.4981 24.6392C30.4972 26.3507 29.3607 27.5159 27.6973 27.5212C26.535 27.5256 25.3735 27.5221 24.2112 27.5221C22.1991 27.5221 20.1879 27.5221 18.1758 27.5221C17.7832 27.5221 17.7677 27.5442 17.8589 27.9409C18.0475 28.7581 18.2438 29.5736 18.4237 30.3935C18.478 30.6396 18.5873 30.7512 18.8413 30.7406C19.2279 30.7246 19.6162 30.7353 20.0028 30.737C21.2495 30.745 22.076 31.5613 22.1053 32.8337C22.1122 33.1188 22.2232 33.1932 22.4772 33.1879C23.0257 33.1763 23.575 33.1781 24.1234 33.1887C24.4945 33.1958 24.7683 33.4579 24.7984 33.8165C24.826 34.1423 24.6357 34.3513 24.4118 34.5381V34.5408ZM15.4784 26.0983C19.2666 26.0983 23.0549 26.0983 26.8432 26.0983C27.2091 26.0983 27.575 26.1063 27.941 26.0895C28.5729 26.0602 29.0895 25.5432 29.1033 24.8924C29.1231 23.9521 29.1076 23.0109 29.1145 22.0706C29.1162 21.8288 29.0172 21.7244 28.7856 21.7368C28.6676 21.743 28.5488 21.7368 28.4309 21.7368C22.0493 21.7368 15.6669 21.7368 9.28536 21.7368C9.0813 21.7368 8.87639 21.7527 8.67665 21.6889C8.36928 21.5907 8.18675 21.3498 8.18331 21.0302C8.17986 20.707 8.35292 20.4653 8.65943 20.3582C8.84798 20.2918 9.04256 20.3121 9.23542 20.3121C15.7031 20.3112 22.1716 20.3121 28.6392 20.3112C29.1067 20.3112 29.1128 20.3059 29.1128 19.8331C29.1128 17.686 29.1128 15.5388 29.1128 13.3917C29.1128 11.4996 29.1162 9.60655 29.1102 7.71442C29.1076 6.86884 28.5962 6.34733 27.7817 6.33937C27.4485 6.33582 27.1136 6.34999 26.7812 6.33494C26.5445 6.32431 26.3809 6.40754 26.2293 6.59879C24.5556 8.70785 22.8905 10.8249 21.1849 12.9065C20.7527 13.4342 20.6089 13.9044 20.7019 14.6162C20.9593 16.5881 19.593 18.0375 18.1293 18.2429C17.4732 18.335 16.8189 18.2881 16.1637 18.2677C15.3285 18.242 14.5717 18.4067 13.9217 19.0044C13.5136 19.3798 12.9566 19.1823 12.811 18.6254C12.4822 17.3584 12.279 16.0781 12.4357 14.7561C12.7051 12.4797 14.2489 10.986 16.484 10.8807C16.6897 10.8709 16.8206 10.7939 16.9325 10.6212C17.7832 9.30285 18.6416 7.9889 19.4948 6.67228C19.5465 6.59259 19.6481 6.51114 19.6024 6.41108C19.5456 6.28713 19.4104 6.34202 19.3097 6.34114C17.9003 6.33759 16.49 6.33848 15.0806 6.33848C11.1313 6.33848 7.18113 6.33759 3.23184 6.34025C2.4363 6.34025 1.89474 6.85291 1.89388 7.63473C1.887 11.7404 1.8913 15.847 1.88613 19.9526C1.88613 20.2307 1.99462 20.3219 2.25377 20.3157C2.71611 20.3042 3.17932 20.3006 3.64166 20.3201C4.13586 20.3405 4.43634 20.7283 4.33905 21.1843C4.26931 21.511 3.99552 21.7217 3.58484 21.7332C3.13283 21.7465 2.68081 21.7456 2.2288 21.7368C1.97826 21.7314 1.88441 21.8386 1.887 22.0927C1.89474 23.0109 1.887 23.9299 1.89388 24.8481C1.89733 25.3183 2.1229 25.6654 2.49915 25.9186C2.77724 26.1054 3.08978 26.1001 3.40317 26.1001C7.42823 26.1001 11.4533 26.1001 15.4784 26.1001V26.0983ZM26.5247 3.44405C26.5229 2.77291 26.114 2.19119 25.501 1.98754C24.8724 1.77858 24.2078 1.98489 23.8212 2.57103C22.5952 4.42864 21.3889 6.30041 20.1689 8.16244C20.0389 8.36077 20.0906 8.46968 20.2611 8.59541C20.7243 8.93629 21.184 9.28338 21.6343 9.64285C21.8212 9.79249 21.9382 9.7739 22.0863 9.58707C23.4518 7.86317 24.8251 6.14634 26.1932 4.42598C26.4188 4.14265 26.5376 3.81681 26.5255 3.44582L26.5247 3.44405ZM16.6088 16.8617C17.0195 16.8617 17.3639 16.8732 17.7074 16.859C18.4806 16.828 19.0764 16.3472 19.2907 15.5813C19.4061 15.1687 19.3786 14.7508 19.2925 14.3338C19.2503 14.1275 19.1495 13.9761 18.9825 13.8512C18.4418 13.4493 17.8899 13.0597 17.3794 12.6205C17.0161 12.308 16.6544 12.2185 16.1947 12.3106C15.3294 12.4842 14.5907 12.8454 14.1688 13.6804C13.6178 14.7694 13.7151 15.9284 13.8838 17.0883C13.9045 17.2282 13.9682 17.2778 14.1077 17.2132C14.929 16.8369 15.7986 16.8227 16.608 16.8608L16.6088 16.8617ZM15.4835 33.187C17.0867 33.187 18.6889 33.187 20.2921 33.187C20.7759 33.187 20.8982 32.986 20.6855 32.5309C20.5659 32.2759 20.3575 32.1661 20.0837 32.1661C17.029 32.1679 13.9734 32.167 10.9186 32.1661C10.7387 32.1661 10.5751 32.2068 10.4477 32.3423C10.2608 32.5397 10.1825 32.7921 10.2591 33.0444C10.3323 33.287 10.5734 33.1817 10.7404 33.1825C12.322 33.1896 13.9028 33.187 15.4844 33.187H15.4835ZM15.4758 30.7379C15.9063 30.7379 16.3367 30.7317 16.7672 30.7406C16.9876 30.745 17.0918 30.6857 17.0315 30.4342C16.8215 29.5541 16.6183 28.6713 16.4177 27.7886C16.3729 27.5929 16.2679 27.5168 16.075 27.5212C15.6876 27.53 15.3001 27.5283 14.9127 27.523C14.7353 27.5203 14.6312 27.592 14.5898 27.7735C14.3858 28.6669 14.18 29.5603 13.9682 30.451C13.9122 30.6883 14.0121 30.7432 14.217 30.7406C14.6363 30.7335 15.0565 30.7388 15.4758 30.7388V30.7379ZM19.32 9.65082C19.2072 9.6464 19.1659 9.71457 19.1246 9.77832C18.8189 10.2467 18.5176 10.7186 18.2076 11.1844C18.0957 11.3517 18.1379 11.4624 18.2851 11.5731C18.6769 11.8661 19.066 12.1619 19.4509 12.4647C19.6024 12.5842 19.7083 12.5727 19.8289 12.4169C20.1698 11.975 20.5185 11.5394 20.8724 11.1073C20.9783 10.9781 20.9895 10.8931 20.8457 10.7859C20.3842 10.4424 19.9287 10.0882 19.4707 9.73936C19.4199 9.70041 19.3605 9.67384 19.3226 9.65171L19.32 9.65082Z" fill="#00FFFF"/>
</svg>
