<svg width="21" height="26" viewBox="0 0 21 26" fill="none" xmlns="http://www.w3.org/2000/svg">
<path d="M17.0008 13.6652C16.99 11.6787 17.8868 10.1794 19.702 9.07522C18.6863 7.61921 17.1521 6.81814 15.1263 6.66117C13.2085 6.50961 11.1124 7.78159 10.3453 7.78159C9.53495 7.78159 7.67658 6.7153 6.21797 6.7153C3.20353 6.76401 0 9.12394 0 13.925C0 15.3431 0.259307 16.8081 0.777922 18.3201C1.46941 20.3065 3.96524 25.178 6.56912 25.0968C7.93048 25.0643 8.89208 24.1279 10.664 24.1279C12.3819 24.1279 13.2733 25.0968 14.7913 25.0968C17.4168 25.0589 19.6749 20.6313 20.334 18.6394C16.8118 16.9777 17.0008 13.768 17.0008 13.6652ZM13.9432 4.77756C15.418 3.02385 15.2829 1.42711 15.2397 0.853363C13.9378 0.929141 12.4305 1.74104 11.5716 2.74239C10.6262 3.8141 10.0698 5.14021 10.1886 6.63411C11.5986 6.74236 12.8843 6.01706 13.9432 4.77756Z" fill="white"/>
</svg>
