<svg width="26" height="27" viewBox="0 0 26 27" fill="none" xmlns="http://www.w3.org/2000/svg">
<path d="M9.04492 1.18039C5.91505 2.25246 3.24566 4.59806 1.76347 7.55526C1.24542 8.57696 0.871274 9.66342 0.648226 10.7859C0.079812 13.5776 0.475543 16.5491 1.76347 19.0962C2.5981 20.7583 3.79968 22.2333 5.2531 23.3845C6.62736 24.4782 8.22468 25.284 9.92273 25.7373C12.0597 26.3129 14.3405 26.2985 16.4991 25.8093C18.4489 25.3632 20.2909 24.4278 21.7587 23.0751C23.3128 21.6433 24.4209 19.7654 25.0109 17.7435C25.6512 15.5346 25.7376 13.1818 25.3347 10.9226C21.3054 10.9226 17.2761 10.9226 13.2397 10.9226C13.2397 12.5918 13.2397 14.2683 13.2397 15.9376C15.5709 15.9376 17.9093 15.9376 20.2405 15.9376C19.9671 17.5421 19.0173 19.0027 17.6647 19.9093C16.8156 20.4777 15.8443 20.8518 14.837 21.0245C13.8225 21.1972 12.7792 21.2188 11.7719 21.0173C10.743 20.8158 9.76443 20.3841 8.90821 19.7798C7.54114 18.8228 6.49785 17.4126 5.96541 15.8368C5.41858 14.2323 5.41139 12.4407 5.96541 10.8362C6.34675 9.70659 6.98712 8.65611 7.82895 7.80709C8.86504 6.74221 10.2105 5.98672 11.6639 5.67733C12.9087 5.41111 14.2182 5.46148 15.4342 5.82843C16.4703 6.14501 17.42 6.70623 18.2043 7.45452C18.9958 6.67026 19.78 5.8788 20.5715 5.09453C20.9816 4.67002 21.4205 4.26709 21.8234 3.82819C20.6291 2.72014 19.2188 1.82795 17.6863 1.26673C14.9377 0.237826 11.8222 0.216241 9.04492 1.18039Z" fill="white"/>
<path d="M9.04477 1.18015C11.8221 0.216003 14.9376 0.237589 17.7005 1.25929C19.233 1.82051 20.6361 2.71271 21.8377 3.82075C21.4347 4.25246 21.003 4.66258 20.5857 5.08709C19.7943 5.87136 19.01 6.66282 18.2185 7.44709C17.4343 6.6988 16.4845 6.13039 15.4484 5.821C14.2324 5.45404 12.9229 5.40368 11.6782 5.6699C10.2248 5.97929 8.87928 6.74197 7.84318 7.79965C7.00135 8.64867 6.36099 9.69916 5.97965 10.8288C4.5766 9.74233 3.17355 8.64867 1.77051 7.56221C3.24551 4.59783 5.91489 2.25222 9.04477 1.18015Z" fill="#E94435"/>
<path d="M0.648226 10.7856C0.871274 9.66319 1.25262 8.57673 1.76347 7.55502C3.16651 8.64149 4.56956 9.73514 5.97261 10.8216C5.41859 12.4261 5.42578 14.2177 5.97261 15.8222C4.56956 16.9087 3.16651 18.0023 1.76347 19.0888C0.475543 16.5561 0.079812 13.5773 0.648226 10.7856Z" fill="#F8BB15"/>
<path d="M13.2468 10.9151C17.276 10.9151 21.3053 10.9151 25.3417 10.9151C25.7447 13.1744 25.6583 15.5272 25.018 17.7361C24.428 19.7579 23.3199 21.643 21.7658 23.0677C20.4059 22.01 19.0388 20.9523 17.6861 19.8946C19.0388 18.9952 19.9886 17.5274 20.262 15.9229C17.9308 15.9229 15.5924 15.9229 13.2611 15.9229C13.2396 14.2609 13.2468 12.5916 13.2468 10.9151Z" fill="#547DBE"/>
<path d="M1.76367 19.096C3.16672 18.0095 4.56977 16.9159 5.97281 15.8294C6.50525 17.4123 7.54854 18.8154 8.91561 19.7723C9.77183 20.3767 10.7504 20.8012 11.7793 21.0099C12.7866 21.2113 13.8371 21.1898 14.8444 21.0171C15.8517 20.8444 16.823 20.4703 17.6721 19.9018C19.0319 20.9595 20.399 22.0172 21.7517 23.0749C20.2839 24.4348 18.4419 25.3629 16.4921 25.809C14.3407 26.2983 12.0599 26.3127 9.91573 25.7371C8.21769 25.2838 6.62037 24.4779 5.24611 23.3843C3.79989 22.2259 2.5983 20.7509 1.76367 19.096Z" fill="#34A751"/>
</svg>
